<svg id="svg" version="1.1" xmlns="http://www.w3.org/2000/svg" xmlns:xlink="http://www.w3.org/1999/xlink" width="400" height="615.6521739130435" viewBox="0, 0, 400,615.6521739130435"><g id="svgg"><path id="path0" d="M13.343 102.205 C 13.224 102.514,13.346 103.430,13.614 104.241 C 13.991 105.383,13.994 106.175,13.630 107.758 C 13.257 109.380,13.146 515.946,13.518 519.000 C 13.545 519.220,13.529 520.480,13.483 521.800 C 13.405 524.042,13.457 524.194,14.263 524.111 C 15.016 524.034,15.102 524.181,14.933 525.254 C 14.784 526.197,14.863 526.415,15.269 526.184 C 15.696 525.941,15.702 525.988,15.300 526.421 C 14.624 527.150,14.671 527.600,15.424 527.600 C 15.806 527.600,15.938 527.407,15.765 527.100 C 15.560 526.736,15.610 526.717,15.951 527.029 C 16.208 527.266,16.494 527.851,16.587 528.331 C 16.679 528.811,16.865 529.382,17.001 529.602 C 17.136 529.821,17.062 530.000,16.836 530.000 C 16.610 530.000,16.540 530.299,16.680 530.664 C 16.892 531.218,16.999 531.168,17.321 530.364 C 17.684 529.456,17.735 529.505,18.190 531.200 C 18.456 532.190,18.862 532.961,19.094 532.914 C 19.325 532.867,19.609 533.192,19.726 533.637 C 19.900 534.306,19.837 534.363,19.359 533.966 C 19.041 533.702,18.677 533.590,18.550 533.716 C 18.194 534.073,18.780 534.800,19.424 534.800 C 19.744 534.800,20.000 535.176,20.000 535.645 C 20.000 536.347,20.194 536.462,21.139 536.324 C 22.252 536.160,22.268 536.185,21.882 537.443 C 21.343 539.200,21.757 540.140,22.967 539.908 C 23.791 539.751,23.900 539.857,23.752 540.673 C 23.600 541.513,23.695 541.591,24.595 541.366 C 25.450 541.151,25.566 541.223,25.337 541.821 C 25.161 542.279,25.217 542.437,25.495 542.265 C 25.769 542.096,25.849 542.290,25.716 542.799 C 25.500 543.624,26.157 543.916,26.604 543.193 C 27.054 542.466,27.498 543.154,27.288 544.252 C 27.109 545.190,27.190 545.296,27.942 545.099 C 28.601 544.927,28.800 545.054,28.800 545.650 C 28.800 546.454,30.290 547.284,31.000 546.876 C 31.220 546.750,31.160 546.943,30.866 547.306 C 30.158 548.179,30.595 548.799,31.924 548.806 C 32.570 548.810,32.809 548.934,32.521 549.117 C 32.205 549.317,32.169 549.622,32.415 550.011 C 32.681 550.431,32.790 550.452,32.794 550.086 C 32.798 549.777,33.178 549.937,33.747 550.486 C 34.268 550.989,34.618 551.535,34.524 551.700 C 34.430 551.865,34.858 552.003,35.476 552.006 C 36.283 552.011,36.442 552.112,36.042 552.366 C 35.129 552.943,35.840 554.127,36.934 553.852 C 37.701 553.660,37.856 553.774,37.831 554.510 C 37.811 555.094,38.036 555.402,38.485 555.405 C 38.861 555.407,39.401 555.659,39.685 555.963 C 40.110 556.421,40.096 556.462,39.600 556.200 C 39.128 555.951,39.101 555.992,39.472 556.393 C 40.013 556.978,42.000 557.297,42.000 556.798 C 42.000 556.616,41.816 556.375,41.590 556.263 C 41.365 556.152,41.410 556.106,41.690 556.162 C 41.971 556.217,42.396 556.653,42.636 557.129 C 42.875 557.606,43.190 557.876,43.336 557.731 C 43.481 557.586,43.600 557.677,43.600 557.933 C 43.600 558.190,43.420 558.400,43.200 558.400 C 42.980 558.400,42.800 558.601,42.800 558.847 C 42.800 559.096,43.153 559.201,43.600 559.084 C 44.243 558.916,44.400 559.072,44.400 559.880 C 44.400 560.619,44.563 560.823,45.013 560.650 C 45.426 560.492,45.767 560.770,46.060 561.508 C 46.306 562.123,46.576 562.382,46.681 562.100 C 46.783 561.825,47.042 561.600,47.257 561.600 C 47.472 561.600,47.543 561.768,47.416 561.973 C 47.289 562.179,47.756 562.331,48.452 562.311 C 49.637 562.277,50.506 562.928,50.921 564.157 C 51.022 564.459,51.281 564.426,51.735 564.051 C 52.167 563.694,52.400 563.659,52.400 563.951 C 52.400 564.198,52.535 564.379,52.700 564.353 C 53.606 564.210,54.061 564.464,53.856 564.997 C 53.685 565.443,54.022 565.658,55.183 565.844 C 56.371 566.034,56.683 566.239,56.502 566.712 C 56.345 567.119,56.424 567.232,56.732 567.042 C 56.989 566.883,57.200 566.954,57.200 567.200 C 57.200 567.446,57.360 567.549,57.555 567.428 C 58.080 567.104,58.850 568.204,58.584 568.898 C 58.400 569.376,58.679 569.484,59.954 569.429 C 61.320 569.371,61.587 569.495,61.786 570.286 C 62.001 571.142,64.400 571.597,64.400 570.782 C 64.400 570.645,64.653 570.533,64.961 570.533 C 65.342 570.533,65.468 570.866,65.353 571.567 C 65.235 572.280,65.295 572.430,65.545 572.052 C 65.840 571.604,65.978 571.632,66.299 572.205 C 66.586 572.718,67.033 572.857,67.963 572.720 C 68.909 572.581,69.182 572.670,69.030 573.067 C 68.850 573.536,69.251 573.767,70.062 573.660 C 70.206 573.641,70.543 573.890,70.811 574.213 C 71.079 574.536,71.619 574.800,72.012 574.800 C 72.524 574.800,72.667 575.022,72.520 575.586 C 72.328 576.319,72.504 576.365,75.112 576.270 C 77.144 576.196,77.861 576.298,77.728 576.643 C 77.628 576.905,77.741 577.240,77.979 577.387 C 78.218 577.535,78.307 577.827,78.177 578.038 C 78.047 578.248,78.089 578.394,78.270 578.363 C 79.703 578.114,81.153 578.457,80.946 578.997 C 80.657 579.749,81.962 580.308,82.390 579.615 C 82.600 579.276,83.007 579.222,83.650 579.449 C 84.698 579.818,85.022 579.883,86.200 579.960 C 86.645 579.989,86.822 580.143,86.600 580.306 C 86.380 580.468,86.142 580.870,86.071 581.200 C 85.968 581.681,86.044 581.701,86.451 581.300 C 87.091 580.671,87.743 580.644,87.361 581.262 C 87.157 581.592,87.467 581.661,88.442 581.503 C 90.026 581.246,91.800 581.931,91.800 582.800 C 91.800 583.286,92.323 583.378,94.561 583.286 C 97.024 583.184,97.266 583.239,96.804 583.795 C 96.096 584.648,96.564 584.989,98.533 585.059 C 99.450 585.091,100.532 585.136,100.937 585.159 C 101.343 585.182,101.769 585.560,101.884 586.000 C 102.003 586.454,102.430 586.800,102.870 586.800 C 103.298 586.800,103.544 586.632,103.417 586.428 C 103.291 586.223,103.374 585.939,103.603 585.798 C 103.832 585.656,103.970 585.775,103.910 586.061 C 103.849 586.347,104.205 586.643,104.700 586.718 C 105.207 586.796,105.600 586.647,105.600 586.379 C 105.600 586.010,105.730 586.010,106.175 586.379 C 106.491 586.641,107.301 586.769,107.975 586.663 C 109.191 586.471,109.354 586.665,109.315 588.257 C 109.300 588.839,110.129 588.723,110.969 588.026 C 111.527 587.563,111.583 587.578,111.371 588.132 C 111.159 588.683,111.421 588.760,113.154 588.656 C 115.202 588.534,117.997 589.656,116.739 590.096 C 116.443 590.199,117.506 590.295,119.102 590.308 C 121.209 590.325,121.928 590.204,121.726 589.866 C 121.572 589.610,121.751 589.647,122.123 589.949 C 122.495 590.251,122.800 590.826,122.800 591.227 C 122.800 592.023,126.378 592.175,127.562 591.430 C 127.947 591.187,128.034 591.221,127.838 591.538 C 127.639 591.861,128.092 592.000,129.343 592.000 C 130.403 592.000,131.214 591.796,131.331 591.500 C 131.439 591.225,131.519 591.450,131.507 592.000 C 131.467 593.989,131.540 594.148,132.230 593.575 C 132.649 593.227,132.952 593.191,133.130 593.465 C 133.279 593.693,134.075 593.891,134.900 593.906 C 135.725 593.921,137.660 593.948,139.200 593.967 C 141.722 593.997,142.000 594.079,142.000 594.800 C 142.000 595.537,142.267 595.600,145.400 595.600 C 147.647 595.600,148.800 595.448,148.800 595.151 C 148.800 594.824,148.943 594.821,149.330 595.142 C 149.622 595.384,150.747 595.541,151.830 595.491 C 152.914 595.441,153.800 595.550,153.800 595.732 C 153.800 596.903,155.925 597.080,170.848 597.153 C 182.951 597.212,186.001 597.124,186.006 596.713 C 186.010 596.397,186.125 596.354,186.306 596.602 C 186.641 597.060,239.180 597.332,239.231 596.876 C 239.399 595.359,239.949 594.189,240.050 595.133 C 240.078 595.390,240.129 595.825,240.163 596.100 C 240.198 596.375,240.041 596.732,239.813 596.894 C 239.576 597.062,239.717 597.190,240.143 597.194 C 240.633 597.198,240.809 597.000,240.660 596.613 C 240.314 595.711,240.917 595.551,244.804 595.513 C 246.782 595.494,248.400 595.319,248.400 595.125 C 248.400 594.931,248.748 594.958,249.174 595.186 C 250.200 595.735,250.508 595.708,250.165 595.100 C 249.939 594.700,249.990 594.700,250.421 595.100 C 251.051 595.684,252.651 595.765,252.981 595.230 C 253.107 595.027,252.893 594.778,252.505 594.677 C 251.847 594.505,251.849 594.490,252.524 594.446 C 252.922 594.421,253.164 594.265,253.062 594.100 C 252.960 593.935,255.117 593.818,257.856 593.841 C 262.840 593.881,264.282 593.427,263.448 592.078 C 263.344 591.909,265.236 591.809,267.653 591.855 C 271.652 591.931,272.000 591.880,271.523 591.292 C 271.136 590.814,271.130 590.725,271.500 590.947 C 271.798 591.126,272.000 591.036,272.000 590.724 C 272.000 590.369,272.548 590.211,273.700 590.235 C 274.635 590.254,275.737 590.101,276.148 589.895 C 276.693 589.622,276.817 589.649,276.605 589.993 C 276.241 590.580,278.053 590.396,278.500 589.800 C 278.690 589.547,278.932 589.605,279.160 589.958 C 279.567 590.591,280.993 590.236,280.600 589.600 C 280.462 589.377,280.630 589.087,280.972 588.955 C 281.315 588.824,281.472 588.510,281.321 588.258 C 281.170 588.006,281.365 588.058,281.754 588.374 C 282.327 588.839,282.522 588.850,282.782 588.429 C 283.042 588.008,283.144 588.013,283.321 588.455 C 283.501 588.905,283.610 588.898,283.947 588.413 C 284.194 588.057,284.211 587.655,283.990 587.388 C 283.735 587.081,284.188 586.919,285.487 586.852 C 287.966 586.723,287.923 586.780,287.868 583.802 C 287.826 581.473,287.736 581.199,287.010 581.194 C 286.362 581.189,286.316 581.114,286.781 580.820 C 287.100 580.618,287.477 580.524,287.618 580.611 C 287.759 580.699,287.849 580.282,287.817 579.685 C 287.775 578.896,287.546 578.600,286.979 578.600 C 285.934 578.600,285.720 577.916,285.830 574.926 C 285.894 573.207,285.786 572.485,285.494 572.666 C 285.227 572.831,285.156 572.691,285.307 572.299 C 285.449 571.929,285.302 571.571,284.954 571.438 C 284.622 571.310,284.465 571.382,284.600 571.600 C 284.737 571.821,284.573 571.888,284.223 571.754 C 283.875 571.620,283.733 571.316,283.899 571.058 C 284.575 570.003,284.405 564.776,283.686 564.520 C 282.380 564.055,281.902 563.509,282.481 563.141 C 282.863 562.899,282.807 562.811,282.271 562.806 C 281.609 562.801,281.600 562.743,282.171 562.171 C 282.887 561.456,283.025 560.613,282.360 561.025 C 282.043 561.221,282.039 561.075,282.346 560.501 C 282.832 559.592,282.588 559.200,281.533 559.200 C 280.763 559.200,280.771 559.257,280.643 552.800 C 280.606 550.897,280.488 550.584,279.772 550.482 C 279.125 550.389,278.974 550.127,279.083 549.282 C 279.267 547.860,278.570 546.736,278.027 547.579 C 277.738 548.030,277.592 547.897,277.372 546.979 C 277.217 546.331,276.912 545.575,276.696 545.300 C 276.479 545.025,276.463 544.800,276.659 544.800 C 276.856 544.800,277.062 543.720,277.118 542.400 C 277.214 540.127,276.432 538.905,275.900 540.499 C 275.800 540.801,275.534 540.623,275.227 540.051 C 274.911 539.460,274.886 539.206,275.160 539.375 C 275.411 539.530,275.600 539.369,275.600 539.000 C 275.600 538.644,275.450 538.445,275.267 538.559 C 275.083 538.672,274.933 538.511,274.933 538.200 C 274.933 537.889,275.083 537.728,275.267 537.841 C 275.450 537.955,275.600 537.587,275.600 537.024 C 275.600 536.461,275.420 536.000,275.200 536.000 C 274.980 536.000,274.800 535.736,274.800 535.413 C 274.800 535.089,274.564 534.916,274.275 535.027 C 273.862 535.185,273.784 534.585,273.909 532.214 C 274.015 530.216,273.922 529.200,273.634 529.200 C 273.395 529.200,273.245 528.979,273.300 528.709 C 273.355 528.440,273.022 528.161,272.559 528.089 C 271.890 527.986,271.759 527.748,271.917 526.921 C 272.073 526.108,271.994 525.955,271.558 526.217 C 271.088 526.500,271.084 526.450,271.534 525.894 C 272.123 525.169,271.801 524.228,271.111 524.655 C 270.849 524.817,270.792 524.737,270.966 524.455 C 271.125 524.198,271.423 524.091,271.628 524.217 C 271.832 524.344,272.000 524.077,272.000 523.624 C 272.000 523.067,271.741 522.800,271.200 522.800 C 270.383 522.800,270.318 522.528,270.281 519.000 C 270.272 518.126,270.042 517.740,269.434 517.580 C 268.795 517.412,268.631 517.101,268.733 516.248 C 268.819 515.525,268.609 514.937,268.133 514.567 C 267.474 514.056,267.471 514.023,268.100 514.242 C 268.492 514.378,268.800 514.291,268.800 514.043 C 268.800 513.799,268.618 513.600,268.397 513.600 C 268.148 513.600,268.172 513.313,268.460 512.853 C 269.049 511.909,268.636 510.787,267.598 510.515 C 266.806 510.308,266.552 508.898,266.792 506.044 C 266.858 505.256,266.725 505.126,266.036 505.306 C 265.469 505.455,265.200 505.337,265.200 504.939 C 265.200 504.586,265.001 504.465,264.700 504.635 C 264.300 504.861,264.300 504.810,264.700 504.379 C 265.277 503.757,265.385 502.239,264.828 502.583 C 264.623 502.709,264.339 502.626,264.198 502.397 C 264.056 502.168,264.179 502.030,264.470 502.090 C 265.218 502.245,265.151 500.316,264.400 500.068 C 263.867 499.892,263.867 499.952,264.400 500.612 C 264.933 501.271,264.933 501.312,264.400 500.983 C 264.070 500.779,263.680 500.609,263.533 500.606 C 263.387 500.603,263.117 500.436,262.933 500.236 C 262.740 500.024,262.810 499.993,263.103 500.161 C 263.484 500.381,263.592 499.877,263.551 498.066 C 263.490 495.359,263.162 494.575,262.240 494.929 C 261.556 495.192,261.476 494.884,261.582 492.400 C 261.615 491.629,261.353 490.640,260.999 490.200 C 260.382 489.433,260.376 489.441,260.843 490.400 C 261.288 491.312,261.272 491.352,260.665 490.851 C 260.299 490.549,260.000 489.964,260.000 489.551 C 260.000 489.137,259.720 488.800,259.376 488.800 C 259.033 488.800,258.866 488.617,259.004 488.393 C 259.142 488.170,259.394 488.072,259.563 488.177 C 259.732 488.281,259.898 487.644,259.933 486.761 C 259.971 485.784,259.840 485.252,259.598 485.401 C 259.379 485.537,259.200 485.386,259.200 485.066 C 259.200 484.747,258.975 484.399,258.700 484.294 C 258.374 484.169,258.217 483.325,258.248 481.872 C 258.294 479.740,258.244 479.624,257.103 479.226 C 256.076 478.868,255.947 478.666,256.171 477.772 C 256.354 477.046,256.295 476.818,255.976 477.015 C 255.643 477.221,255.646 477.062,255.987 476.425 C 256.391 475.669,256.356 475.569,255.727 475.676 C 255.113 475.781,254.981 475.474,254.879 473.703 C 254.765 471.720,253.818 470.402,252.725 470.707 C 252.575 470.749,252.477 470.439,252.509 470.019 C 252.540 469.599,252.709 469.344,252.883 469.451 C 253.457 469.806,253.214 468.170,252.575 467.376 C 252.131 466.826,251.889 466.745,251.742 467.100 C 251.297 468.168,251.001 467.517,251.139 465.774 C 251.265 464.189,251.173 463.918,250.442 463.727 C 249.745 463.545,249.600 463.200,249.600 461.722 C 249.600 459.946,249.593 459.938,248.400 460.200 C 247.615 460.372,247.200 460.306,247.200 460.008 C 247.200 459.758,247.343 459.641,247.517 459.749 C 247.691 459.856,247.861 459.590,247.893 459.157 C 247.982 457.984,241.091 458.171,240.866 459.347 C 240.783 459.783,240.894 459.989,241.134 459.841 C 241.360 459.701,241.645 459.750,241.768 459.949 C 241.893 460.151,241.376 460.228,240.596 460.123 C 239.155 459.929,238.468 461.189,239.700 461.769 C 239.975 461.898,239.705 461.938,239.100 461.857 C 238.488 461.776,237.980 461.908,237.954 462.155 C 237.722 464.422,237.576 465.008,237.214 465.129 C 236.984 465.205,236.921 465.478,237.074 465.734 C 237.228 465.991,237.052 465.955,236.682 465.655 C 235.867 464.995,235.615 465.476,235.714 467.497 C 235.750 468.211,235.676 468.751,235.551 468.697 C 234.972 468.450,233.965 469.806,234.158 470.574 C 234.416 471.603,233.916 472.483,233.163 472.321 C 232.803 472.244,232.611 472.525,232.632 473.100 C 232.649 473.595,232.514 474.000,232.332 474.000 C 231.752 474.000,231.975 475.215,232.598 475.454 C 232.926 475.581,233.096 475.845,232.973 476.043 C 232.845 476.251,232.436 476.233,232.002 476.001 C 231.049 475.491,230.685 475.490,231.000 476.000 C 231.136 476.220,231.102 476.400,230.924 476.400 C 230.746 476.400,230.574 476.849,230.542 477.398 C 230.511 477.946,230.633 478.303,230.815 478.191 C 230.996 478.079,231.261 478.174,231.402 478.403 C 231.544 478.632,231.421 478.770,231.130 478.710 C 230.783 478.638,230.569 479.082,230.509 480.000 C 230.341 482.598,230.290 482.733,229.533 482.587 C 229.130 482.509,228.800 482.616,228.800 482.823 C 228.800 483.030,228.941 483.200,229.114 483.200 C 229.287 483.200,229.429 483.547,229.429 483.971 C 229.429 484.394,229.287 484.654,229.114 484.547 C 228.605 484.232,228.755 485.392,229.300 485.979 C 229.664 486.371,229.668 486.443,229.316 486.245 C 228.478 485.773,227.155 486.862,227.720 487.558 C 228.116 488.046,228.077 488.104,227.500 487.887 C 227.115 487.743,226.800 487.799,226.800 488.013 C 226.800 488.226,226.969 488.400,227.175 488.400 C 227.381 488.400,227.525 488.740,227.493 489.156 C 227.457 489.643,227.229 489.833,226.853 489.688 C 226.476 489.544,226.372 489.631,226.558 489.932 C 226.937 490.545,226.296 490.536,225.680 489.920 C 225.003 489.243,225.023 491.649,225.700 492.379 C 226.100 492.810,226.100 492.861,225.700 492.635 C 225.425 492.480,225.200 492.530,225.200 492.747 C 225.200 492.964,225.515 493.224,225.900 493.324 C 226.529 493.489,226.524 493.512,225.853 493.554 C 225.329 493.586,225.165 493.823,225.303 494.349 C 225.450 494.912,225.323 495.053,224.794 494.914 C 224.407 494.813,223.952 494.954,223.783 495.227 C 223.567 495.577,223.642 495.624,224.038 495.385 C 224.491 495.112,224.507 495.161,224.124 495.635 C 223.862 495.959,223.653 496.939,223.659 497.812 C 223.671 499.393,222.878 502.141,222.825 500.700 C 222.811 500.315,222.609 500.000,222.376 500.000 C 222.143 500.000,222.064 500.180,222.200 500.400 C 222.336 500.620,222.257 500.800,222.024 500.800 C 221.791 500.800,221.600 501.182,221.600 501.649 C 221.600 502.397,221.683 502.434,222.300 501.956 C 222.924 501.472,222.921 501.506,222.274 502.267 C 221.792 502.834,221.693 503.210,221.980 503.388 C 222.218 503.535,222.309 503.823,222.183 504.028 C 222.056 504.232,222.156 504.400,222.405 504.400 C 222.688 504.400,222.645 504.612,222.291 504.966 C 221.980 505.277,221.382 505.502,220.963 505.466 C 220.348 505.413,220.192 505.680,220.158 506.844 C 220.107 508.612,219.759 509.236,218.987 508.940 C 218.664 508.816,218.400 508.924,218.400 509.181 C 218.400 509.437,218.580 509.536,218.800 509.400 C 219.020 509.264,219.200 509.343,219.200 509.576 C 219.200 509.809,219.012 510.000,218.782 510.000 C 218.553 510.000,218.394 510.225,218.430 510.500 C 218.713 512.684,218.365 514.316,217.655 514.130 C 217.194 514.010,216.811 514.194,216.651 514.612 C 216.454 515.125,216.552 515.227,217.052 515.035 C 217.603 514.824,217.630 514.882,217.212 515.386 C 216.936 515.718,216.819 516.271,216.951 516.616 C 217.083 516.960,217.058 517.163,216.895 517.068 C 216.733 516.972,216.192 517.048,215.692 517.237 C 214.707 517.609,214.408 521.586,215.363 521.612 C 215.604 521.619,215.481 521.810,215.092 522.037 C 214.702 522.264,214.482 522.609,214.602 522.804 C 214.723 522.999,214.491 523.094,214.086 523.017 C 213.457 522.895,213.364 523.116,213.439 524.550 C 213.522 526.119,213.461 526.225,212.475 526.213 C 211.535 526.201,211.416 526.360,211.359 527.694 C 211.319 528.635,211.449 529.093,211.710 528.932 C 211.949 528.784,212.003 528.871,211.838 529.138 C 211.681 529.392,211.293 529.600,210.976 529.600 C 210.659 529.600,210.400 529.945,210.400 530.367 C 210.400 530.788,210.209 531.197,209.975 531.275 C 209.687 531.371,209.675 531.744,209.937 532.433 C 210.302 533.395,210.260 533.441,209.162 533.280 C 208.426 533.172,207.998 532.869,207.994 532.455 C 207.989 531.902,207.931 531.890,207.620 532.381 C 207.418 532.700,207.360 533.150,207.491 533.381 C 207.621 533.611,207.574 533.660,207.386 533.488 C 206.839 532.990,206.802 531.847,207.322 531.516 C 207.608 531.334,207.368 531.210,206.724 531.206 C 206.132 531.203,205.519 530.992,205.362 530.738 C 205.185 530.452,205.252 530.385,205.538 530.562 C 205.855 530.757,206.000 530.391,206.000 529.397 C 206.000 528.159,205.890 527.981,205.247 528.185 C 204.349 528.470,203.891 527.572,204.236 526.201 C 204.425 525.447,204.289 525.230,203.535 525.087 C 202.604 524.910,202.604 524.909,203.500 524.854 C 204.561 524.790,204.713 523.740,203.700 523.476 C 203.033 523.302,203.033 523.291,203.700 523.246 C 204.488 523.194,204.678 522.003,203.900 521.994 C 203.537 521.989,203.551 521.892,203.950 521.640 C 204.371 521.373,204.231 521.158,203.350 520.719 C 202.717 520.404,202.245 519.934,202.300 519.673 C 202.355 519.413,202.201 519.200,201.957 519.200 C 201.714 519.200,201.609 518.954,201.725 518.652 C 201.840 518.351,201.615 517.579,201.225 516.936 C 200.834 516.294,200.566 515.281,200.630 514.684 C 200.697 514.054,200.547 513.597,200.273 513.594 C 199.949 513.590,199.966 513.483,200.324 513.255 C 201.243 512.673,200.787 508.995,199.800 509.022 C 199.062 509.042,199.010 508.828,199.135 506.272 L 199.270 503.499 198.135 503.666 L 197.000 503.834 197.136 501.517 C 197.237 499.783,197.136 499.198,196.736 499.194 C 196.300 499.189,196.303 499.123,196.751 498.839 C 197.404 498.425,196.959 497.480,196.272 497.823 C 196.013 497.953,196.115 497.801,196.500 497.486 C 197.609 496.576,197.427 494.800,196.224 494.800 C 195.687 494.800,195.136 494.620,195.000 494.400 C 194.864 494.180,194.921 494.000,195.126 494.000 C 195.332 494.000,195.500 493.010,195.500 491.800 C 195.500 490.225,195.347 489.600,194.963 489.600 C 194.667 489.600,194.480 489.825,194.547 490.100 C 194.614 490.375,194.593 490.464,194.500 490.298 C 194.408 490.131,194.193 490.081,194.024 490.185 C 193.854 490.290,193.750 489.616,193.792 488.688 C 193.833 487.760,193.672 486.740,193.434 486.423 C 193.106 485.988,193.122 485.920,193.500 486.147 C 193.775 486.312,194.000 486.272,194.000 486.057 C 194.000 485.842,193.775 485.576,193.500 485.465 C 193.100 485.304,193.100 485.257,193.500 485.232 C 193.775 485.214,194.000 484.919,194.000 484.576 C 194.000 484.191,193.809 484.063,193.500 484.241 C 193.225 484.399,193.133 484.381,193.297 484.201 C 193.460 484.021,193.370 483.587,193.097 483.237 C 192.667 482.686,192.687 482.668,193.243 483.102 C 193.812 483.546,193.886 483.399,193.886 481.813 C 193.886 480.829,193.731 480.119,193.543 480.235 C 193.354 480.352,193.200 480.167,193.200 479.824 C 193.200 479.481,192.930 479.200,192.600 479.200 C 192.270 479.200,192.000 478.849,192.000 478.420 C 192.000 477.991,191.685 477.437,191.300 477.190 C 190.769 476.848,190.753 476.786,191.233 476.932 C 191.986 477.160,192.172 474.796,191.439 474.306 C 191.136 474.103,191.155 474.010,191.500 474.006 C 192.306 473.996,192.074 472.897,191.126 472.233 C 190.377 471.709,190.259 471.272,190.309 469.210 C 190.355 467.288,190.243 466.800,189.755 466.800 C 189.213 466.800,189.214 466.728,189.771 466.171 C 190.819 465.124,190.515 463.640,189.346 464.100 C 188.905 464.273,188.372 462.319,188.634 461.492 C 188.784 461.020,188.666 460.561,188.343 460.356 C 187.943 460.103,187.932 460.011,188.300 460.006 C 188.575 460.003,188.800 459.621,188.800 459.157 C 188.800 458.617,188.608 458.388,188.264 458.520 C 187.969 458.633,187.474 458.546,187.164 458.325 C 186.727 458.015,186.768 457.979,187.345 458.167 C 187.918 458.353,188.031 458.257,187.835 457.748 C 187.638 457.234,187.700 457.185,188.111 457.526 C 188.525 457.870,188.640 457.752,188.640 456.983 C 188.640 456.442,188.496 456.000,188.320 456.000 C 188.144 456.000,188.000 455.809,188.000 455.576 C 188.000 455.343,188.208 455.281,188.462 455.438 C 188.759 455.622,188.815 455.547,188.617 455.227 C 188.448 454.954,187.970 454.819,187.555 454.928 C 186.940 455.088,186.800 454.905,186.800 453.939 C 186.800 453.096,186.655 452.840,186.300 453.053 C 185.926 453.278,185.906 453.208,186.221 452.777 C 187.057 451.630,186.989 449.350,186.139 450.019 C 185.454 450.558,185.442 450.547,185.974 449.870 C 186.473 449.235,186.473 449.086,185.974 448.732 C 185.511 448.403,185.536 448.368,186.100 448.550 C 186.684 448.738,186.795 448.529,186.772 447.287 C 186.749 446.091,186.676 445.957,186.400 446.600 C 186.106 447.284,186.052 447.299,186.028 446.700 C 186.013 446.315,185.801 446.000,185.557 446.000 C 185.314 446.000,185.222 446.279,185.353 446.621 C 185.484 446.962,185.433 447.144,185.240 447.025 C 185.047 446.905,184.982 445.428,185.095 443.741 C 185.289 440.870,185.254 440.692,184.551 440.939 C 183.906 441.165,183.885 441.131,184.400 440.701 C 185.429 439.842,185.303 437.713,184.207 437.437 C 183.511 437.263,183.327 436.999,183.484 436.400 C 183.600 435.957,183.448 435.292,183.147 434.921 C 182.773 434.460,182.758 434.342,183.100 434.547 C 183.415 434.736,183.600 434.616,183.600 434.224 C 183.600 433.881,183.398 433.600,183.151 433.600 C 182.869 433.600,182.834 433.414,183.057 433.100 C 183.253 432.825,183.386 432.330,183.352 432.000 C 183.319 431.670,183.272 431.154,183.246 430.853 C 183.217 430.510,182.902 430.385,182.400 430.516 C 181.844 430.661,181.591 430.523,181.570 430.063 C 181.553 429.698,181.508 427.333,181.470 424.806 C 181.407 420.668,181.326 420.197,180.653 420.067 C 180.137 419.968,180.001 420.078,180.214 420.423 C 180.420 420.757,180.361 420.823,180.035 420.622 C 179.767 420.456,179.647 420.219,179.770 420.097 C 179.893 419.974,179.770 419.597,179.497 419.260 C 179.114 418.787,179.112 418.714,179.490 418.941 C 179.857 419.161,179.963 418.631,179.912 416.817 C 179.874 415.488,179.699 414.400,179.522 414.400 C 179.345 414.400,179.200 414.209,179.200 413.976 C 179.200 413.743,179.380 413.664,179.600 413.800 C 179.820 413.936,180.000 413.857,180.000 413.624 C 180.000 413.391,179.640 413.200,179.200 413.200 C 178.359 413.200,178.300 412.986,178.338 410.100 C 178.351 409.141,178.174 408.400,177.932 408.400 C 177.633 408.400,177.638 408.237,177.946 407.865 C 178.393 407.326,178.407 403.100,177.961 403.295 C 177.830 403.353,177.421 403.150,177.052 402.843 C 176.465 402.356,176.414 402.371,176.642 402.966 C 176.786 403.340,177.120 403.563,177.385 403.461 C 177.650 403.359,177.867 403.504,177.867 403.783 C 177.867 404.078,177.560 404.210,177.133 404.098 C 176.730 403.993,176.400 403.658,176.400 403.353 C 176.400 403.049,176.214 402.800,175.986 402.800 C 175.719 402.800,175.702 402.552,175.938 402.100 C 176.452 401.117,176.389 397.860,175.849 397.506 C 175.531 397.298,175.546 397.210,175.900 397.206 C 176.175 397.203,176.400 396.999,176.400 396.753 C 176.400 396.499,176.045 396.400,175.577 396.522 C 174.935 396.690,174.849 396.623,175.187 396.215 C 175.506 395.831,175.472 395.637,175.060 395.478 C 174.701 395.341,174.569 394.894,174.695 394.239 C 174.852 393.413,174.688 393.137,173.845 392.817 C 173.270 392.599,172.800 392.330,172.800 392.220 C 172.800 392.110,173.228 392.182,173.750 392.381 C 174.813 392.785,175.125 391.388,174.315 389.852 C 174.090 389.425,174.081 389.203,174.293 389.334 C 174.499 389.461,174.667 389.311,174.667 389.000 C 174.667 388.689,174.517 388.528,174.333 388.641 C 174.150 388.755,174.000 388.657,174.000 388.424 C 174.000 388.191,174.180 388.000,174.400 388.000 C 174.845 388.000,174.931 386.808,174.557 385.833 C 174.424 385.485,174.019 385.203,173.657 385.206 C 173.083 385.211,173.076 385.266,173.600 385.637 C 174.133 386.014,174.133 386.043,173.600 385.896 C 173.142 385.770,173.032 385.243,173.137 383.665 C 173.212 382.529,173.115 381.600,172.922 381.600 C 172.728 381.600,172.543 381.236,172.509 380.791 C 172.476 380.347,172.618 380.087,172.824 380.215 C 173.031 380.343,173.200 379.987,173.200 379.424 C 173.200 378.358,172.615 378.031,172.265 378.900 C 172.107 379.292,172.056 379.289,172.032 378.887 C 172.014 378.606,172.270 378.271,172.600 378.145 C 173.504 377.798,173.320 377.223,172.364 377.407 C 171.671 377.540,171.611 377.468,172.013 376.984 C 172.404 376.513,172.373 376.400,171.849 376.400 C 171.467 376.400,171.200 376.071,171.200 375.600 C 171.200 375.160,171.020 374.800,170.800 374.800 C 170.580 374.800,170.400 374.609,170.400 374.376 C 170.400 374.143,170.591 374.071,170.825 374.215 C 171.106 374.389,171.208 373.891,171.125 372.739 C 171.055 371.769,170.808 371.034,170.567 371.078 C 170.328 371.121,170.133 370.898,170.133 370.584 C 170.133 370.153,170.265 370.122,170.667 370.455 C 171.088 370.805,171.200 370.678,171.200 369.849 C 171.200 369.272,170.975 368.797,170.700 368.794 C 170.327 368.789,170.336 368.702,170.735 368.449 C 171.336 368.068,171.221 366.337,170.600 366.424 C 170.380 366.455,170.260 366.687,170.333 366.940 C 170.407 367.193,170.327 367.260,170.156 367.090 C 169.986 366.919,169.777 366.379,169.692 365.890 C 169.422 364.339,169.385 364.212,169.027 363.638 C 168.787 363.253,168.822 363.166,169.138 363.362 C 169.443 363.550,169.600 363.284,169.600 362.575 C 169.600 361.667,169.508 361.578,169.000 362.000 C 168.509 362.408,168.400 362.380,168.400 361.849 C 168.400 361.492,168.670 361.200,169.000 361.200 C 169.330 361.200,169.600 360.919,169.600 360.576 C 169.600 360.184,169.415 360.064,169.100 360.253 C 168.702 360.492,168.701 360.429,169.094 359.943 C 169.698 359.196,168.578 359.040,167.600 359.735 C 167.104 360.087,167.087 360.064,167.500 359.601 C 168.182 358.836,168.130 357.625,167.402 357.346 C 167.074 357.219,166.906 356.952,167.030 356.752 C 167.154 356.551,167.468 356.514,167.728 356.670 C 167.987 356.826,167.942 356.635,167.626 356.246 C 167.290 355.832,167.207 355.427,167.426 355.270 C 168.597 354.426,168.009 348.800,166.749 348.800 C 166.249 348.800,166.059 348.972,166.238 349.262 C 166.409 349.539,166.349 349.615,166.086 349.453 C 165.846 349.305,165.724 348.795,165.815 348.321 C 165.906 347.847,165.760 347.186,165.491 346.853 C 165.212 346.508,165.190 346.360,165.440 346.509 C 165.718 346.676,165.892 346.328,165.913 345.564 C 165.938 344.697,165.719 344.270,165.139 344.056 C 164.369 343.771,164.364 343.728,165.042 343.178 C 165.433 342.860,165.626 342.813,165.470 343.072 C 165.314 343.332,165.385 343.667,165.627 343.817 C 165.911 343.992,166.020 343.754,165.934 343.144 C 165.841 342.493,165.546 342.207,164.980 342.223 C 164.197 342.245,164.165 342.056,164.271 338.023 C 164.391 333.426,164.171 331.200,163.594 331.200 C 163.391 331.200,163.322 331.452,163.440 331.760 C 163.558 332.067,163.458 332.441,163.217 332.589 C 162.977 332.738,162.806 332.711,162.837 332.530 C 163.015 331.507,162.715 330.799,162.100 330.788 C 161.435 330.776,161.434 330.756,162.098 330.369 C 162.754 329.987,162.747 329.896,161.981 328.859 C 161.122 327.699,161.261 326.400,162.243 326.400 C 162.549 326.400,162.800 326.029,162.800 325.576 C 162.800 325.123,162.620 324.864,162.400 325.000 C 162.180 325.136,162.000 325.037,162.000 324.781 C 162.000 324.524,161.730 324.418,161.400 324.545 C 160.777 324.784,160.587 323.758,160.728 320.914 C 160.781 319.854,160.670 319.670,160.096 319.868 C 159.541 320.059,159.562 319.981,160.200 319.481 C 160.825 318.991,160.895 318.747,160.519 318.366 C 160.194 318.036,160.161 317.647,160.417 317.169 C 160.773 316.503,160.817 314.250,160.467 314.600 C 159.762 315.305,159.080 313.229,159.078 310.369 C 159.077 308.007,158.939 307.187,158.538 307.150 C 158.242 307.123,157.775 307.073,157.500 307.041 C 157.225 307.009,157.059 306.645,157.131 306.234 C 157.203 305.822,157.023 305.334,156.731 305.149 C 156.382 304.928,156.360 304.810,156.667 304.806 C 157.163 304.800,157.140 302.475,156.637 301.660 C 156.481 301.407,156.543 301.200,156.776 301.200 C 157.375 301.200,157.306 298.909,156.700 298.665 C 156.300 298.504,156.300 298.457,156.700 298.432 C 156.975 298.414,157.200 298.245,157.200 298.055 C 157.200 297.866,156.723 297.802,156.141 297.913 C 155.401 298.055,155.168 297.976,155.368 297.651 C 155.526 297.396,155.823 297.291,156.028 297.417 C 156.232 297.544,156.400 297.347,156.400 296.981 C 156.400 296.595,156.179 296.399,155.875 296.516 C 155.481 296.667,155.368 296.229,155.421 294.748 C 155.459 293.666,155.307 292.666,155.084 292.528 C 154.860 292.390,154.797 292.472,154.945 292.711 C 155.092 292.949,155.002 293.275,154.745 293.434 C 154.431 293.628,154.384 293.549,154.604 293.194 C 154.842 292.809,154.749 292.734,154.266 292.919 C 153.256 293.307,153.469 292.647,154.500 292.195 C 155.291 291.848,155.929 289.609,155.218 289.675 C 154.378 289.752,153.511 289.555,153.730 289.337 C 153.875 289.192,153.770 288.803,153.497 288.472 C 153.114 288.008,153.110 287.833,153.480 287.708 C 153.822 287.593,153.850 287.259,153.580 286.547 C 153.093 285.267,153.103 284.832,153.602 285.600 C 153.873 286.018,153.967 285.442,153.910 283.700 C 153.866 282.325,153.642 281.173,153.415 281.139 C 153.187 281.106,152.730 281.059,152.400 281.037 C 151.939 281.005,151.822 280.536,151.895 279.018 C 151.953 277.790,151.802 276.921,151.495 276.726 C 151.103 276.477,151.103 276.411,151.497 276.406 C 151.820 276.402,151.972 275.839,151.932 274.800 C 151.867 273.150,151.660 272.900,150.947 273.613 C 150.662 273.898,150.533 273.841,150.533 273.431 C 150.533 273.103,150.671 272.920,150.839 273.024 C 151.007 273.128,151.245 273.051,151.368 272.852 C 151.491 272.653,151.254 272.403,150.842 272.295 C 150.215 272.131,150.126 271.820,150.292 270.378 C 150.443 269.077,150.330 268.538,149.834 268.175 C 149.255 267.752,149.249 267.667,149.788 267.460 C 150.704 267.108,150.527 266.428,149.408 266.003 C 148.748 265.752,148.494 265.420,148.650 265.013 C 148.780 264.676,148.706 264.400,148.486 264.400 C 148.266 264.400,147.972 264.105,147.834 263.743 C 147.642 263.244,147.704 263.189,148.093 263.511 C 148.495 263.845,148.628 263.473,148.718 261.761 C 148.802 260.145,148.681 259.529,148.246 259.362 C 147.925 259.239,147.554 258.857,147.422 258.512 C 147.221 257.989,147.282 257.970,147.801 258.400 C 148.141 258.683,148.534 258.799,148.675 258.659 C 149.095 258.238,148.065 256.400,147.409 256.400 C 147.074 256.400,146.800 256.209,146.800 255.976 C 146.800 255.743,146.602 255.675,146.360 255.825 C 146.049 256.017,146.036 255.877,146.315 255.348 C 146.885 254.267,146.813 252.339,146.165 251.318 C 145.672 250.541,145.688 250.386,146.303 250.008 C 146.941 249.616,146.934 249.589,146.215 249.690 C 145.692 249.763,145.383 249.532,145.291 249.000 C 145.215 248.560,145.047 247.930,144.916 247.600 C 144.457 246.435,144.399 245.552,144.799 245.799 C 145.023 245.938,145.197 245.640,145.194 245.124 C 145.189 244.381,145.112 244.317,144.800 244.800 C 144.587 245.130,144.409 245.211,144.406 244.980 C 144.403 244.749,144.616 244.344,144.880 244.080 C 145.253 243.707,145.212 243.600,144.694 243.600 C 143.990 243.600,143.058 242.275,143.471 241.862 C 143.605 241.729,143.486 241.345,143.208 241.010 C 142.930 240.674,142.869 240.400,143.073 240.400 C 143.277 240.400,143.486 239.680,143.538 238.800 C 143.611 237.570,143.487 237.200,143.002 237.200 C 142.484 237.200,142.453 237.049,142.826 236.352 C 143.076 235.885,143.118 235.603,142.921 235.725 C 141.992 236.299,141.457 235.206,141.521 232.868 C 141.585 230.530,141.562 230.475,140.580 230.582 C 140.027 230.643,139.668 230.599,139.783 230.483 C 139.899 230.368,139.770 229.997,139.497 229.660 C 139.107 229.178,139.106 229.110,139.494 229.343 C 139.858 229.562,139.963 229.215,139.894 228.020 C 139.842 227.129,139.665 226.400,139.500 226.400 C 139.335 226.400,139.200 226.209,139.200 225.976 C 139.200 225.743,139.380 225.664,139.600 225.800 C 139.820 225.936,140.000 225.857,140.000 225.624 C 140.000 225.391,139.570 225.200,139.043 225.200 C 138.172 225.200,138.100 225.061,138.238 223.641 C 138.389 222.098,137.697 221.245,136.764 221.822 C 136.564 221.946,136.400 221.844,136.400 221.595 C 136.400 220.601,135.276 220.162,132.500 220.072 C 129.657 219.979,129.600 219.997,129.600 220.966 C 129.600 221.713,129.419 221.919,128.859 221.811 C 128.303 221.704,128.140 221.885,128.206 222.534 C 128.429 224.724,127.814 227.000,127.000 227.001 C 126.382 227.001,126.211 227.251,126.250 228.101 C 126.333 229.935,126.381 230.058,126.900 229.762 C 127.175 229.605,126.877 230.038,126.239 230.724 C 125.600 231.410,124.925 231.877,124.739 231.762 C 124.552 231.647,124.400 231.728,124.400 231.943 C 124.400 232.158,124.625 232.416,124.900 232.517 C 125.300 232.663,125.300 232.806,124.900 233.230 C 124.253 233.916,124.253 235.874,124.900 236.135 C 125.300 236.296,125.300 236.343,124.900 236.368 C 124.625 236.386,124.400 236.670,124.400 237.000 C 124.400 237.330,124.142 237.600,123.827 237.600 C 123.136 237.600,122.841 238.489,122.863 240.499 C 122.875 241.518,123.027 241.910,123.340 241.722 C 123.613 241.558,123.590 241.705,123.284 242.084 C 123.000 242.435,122.352 242.826,121.844 242.953 C 120.832 243.207,120.231 248.000,121.211 248.000 C 121.460 248.000,121.513 248.215,121.335 248.500 C 120.835 249.302,120.758 250.467,121.172 250.966 C 121.446 251.296,121.248 251.424,120.478 251.414 C 119.544 251.402,119.383 251.579,119.272 252.741 C 119.201 253.479,119.299 253.986,119.489 253.869 C 119.679 253.751,119.863 254.046,119.899 254.523 C 119.952 255.223,119.888 255.276,119.564 254.795 C 119.249 254.326,119.177 254.412,119.226 255.200 C 119.384 257.729,119.210 258.400,118.400 258.400 C 117.483 258.400,117.379 258.806,118.100 259.570 C 118.500 259.994,118.500 260.137,118.100 260.283 C 117.456 260.520,117.453 262.093,118.097 262.737 C 118.418 263.058,118.452 263.333,118.192 263.517 C 117.658 263.893,117.573 266.000,118.091 266.000 C 118.330 266.000,118.297 266.242,118.011 266.587 C 117.743 266.910,117.406 267.152,117.262 267.124 C 117.118 267.096,116.685 267.211,116.300 267.379 C 115.565 267.701,115.309 269.600,116.000 269.600 C 116.220 269.600,116.400 269.791,116.400 270.024 C 116.400 270.257,116.249 270.354,116.064 270.240 C 115.880 270.126,115.705 270.662,115.676 271.433 C 115.645 272.264,115.784 272.734,116.018 272.589 C 116.235 272.455,116.292 272.149,116.145 271.911 C 115.988 271.658,116.062 271.591,116.321 271.751 C 116.811 272.054,116.524 273.200,115.957 273.200 C 115.761 273.200,115.645 273.425,115.700 273.700 C 115.760 273.998,115.464 274.154,114.967 274.086 C 114.033 273.959,113.685 276.708,114.561 277.294 C 114.867 277.499,114.869 277.590,114.569 277.594 C 114.303 277.598,114.152 278.591,114.175 280.200 C 114.210 282.670,114.069 282.974,112.951 282.842 C 112.704 282.812,112.388 283.360,112.248 284.058 C 111.934 285.628,112.248 286.051,112.768 284.758 C 113.150 283.807,113.153 283.808,113.089 284.900 C 113.054 285.505,112.895 286.000,112.735 286.000 C 112.228 286.000,112.594 288.669,113.209 289.449 C 113.741 290.125,113.736 290.150,113.163 289.703 C 112.813 289.430,112.393 289.340,112.230 289.503 C 112.067 289.667,111.768 289.822,111.567 289.850 C 111.365 289.877,111.020 289.923,110.800 289.950 C 110.580 289.978,110.400 290.371,110.400 290.824 C 110.400 291.277,110.580 291.536,110.800 291.400 C 111.264 291.113,111.344 291.722,110.900 292.168 C 110.455 292.616,110.536 296.153,111.000 296.494 C 111.248 296.676,111.210 296.790,110.900 296.794 C 110.625 296.797,110.400 297.262,110.400 297.827 C 110.400 298.676,110.260 298.809,109.591 298.597 C 108.891 298.375,108.795 298.502,108.874 299.543 C 108.925 300.204,109.109 300.656,109.283 300.549 C 109.457 300.441,109.600 300.533,109.600 300.753 C 109.600 300.973,109.408 301.272,109.172 301.417 C 108.913 301.577,108.798 302.770,108.879 304.441 C 108.992 306.758,108.911 307.200,108.374 307.200 C 107.494 307.200,106.554 309.014,107.085 309.686 C 107.571 310.301,107.603 311.600,107.133 311.600 C 106.524 311.600,106.789 313.725,107.500 314.537 C 107.885 314.977,107.975 315.206,107.700 315.045 C 107.425 314.884,107.178 314.943,107.150 315.176 C 107.123 315.409,107.078 315.810,107.050 316.067 C 107.022 316.323,106.730 316.607,106.400 316.697 C 105.914 316.830,105.904 316.788,106.343 316.480 C 106.694 316.234,106.739 316.009,106.470 315.843 C 105.791 315.424,105.469 316.390,105.361 319.173 C 105.305 320.618,105.245 322.025,105.229 322.300 C 105.213 322.575,104.795 322.803,104.300 322.806 C 103.572 322.811,103.515 322.886,104.000 323.200 C 104.390 323.452,104.427 323.590,104.106 323.594 C 103.739 323.598,103.650 324.621,103.757 327.607 C 103.846 330.083,103.743 331.711,103.489 331.869 C 103.251 332.016,103.197 331.928,103.362 331.662 C 103.519 331.408,103.457 331.200,103.224 331.200 C 102.991 331.200,102.797 331.425,102.794 331.700 C 102.789 332.061,102.690 332.046,102.437 331.647 C 101.923 330.834,101.536 333.013,101.843 335.000 C 101.979 335.880,102.071 337.015,102.047 337.522 C 102.024 338.029,102.160 338.348,102.350 338.231 C 102.539 338.114,102.406 338.654,102.054 339.430 C 101.702 340.207,101.351 340.653,101.274 340.421 C 100.694 338.682,100.076 340.291,100.135 343.382 C 100.195 346.500,100.135 346.780,99.369 346.972 C 98.400 347.215,98.049 353.651,98.942 354.777 C 99.295 355.221,99.285 355.285,98.900 355.053 C 98.625 354.888,98.400 354.943,98.400 355.176 C 98.400 355.409,98.059 355.600,97.643 355.600 C 97.226 355.600,96.776 355.885,96.643 356.233 C 96.322 357.070,96.337 357.286,96.700 357.062 C 96.865 356.960,97.026 357.308,97.058 357.836 C 97.095 358.458,96.955 358.699,96.658 358.521 C 96.406 358.370,96.447 358.551,96.749 358.923 C 97.141 359.407,97.177 359.745,96.875 360.110 C 96.642 360.390,96.505 361.290,96.570 362.110 C 96.653 363.158,96.527 363.600,96.144 363.600 C 95.845 363.600,95.597 363.375,95.594 363.100 C 95.589 362.707,95.519 362.709,95.265 363.109 C 95.087 363.389,94.919 365.686,94.892 368.213 C 94.840 373.070,94.710 373.694,93.820 373.352 C 93.384 373.185,93.262 373.679,93.253 375.663 C 93.246 377.070,93.054 378.249,92.818 378.327 C 92.585 378.405,92.521 378.678,92.674 378.934 C 92.828 379.190,92.645 379.149,92.267 378.843 C 91.340 378.091,90.968 378.572,91.526 379.798 C 91.777 380.349,91.842 380.800,91.671 380.800 C 91.499 380.800,91.368 382.105,91.379 383.700 C 91.397 386.207,91.291 386.656,90.600 387.016 C 89.997 387.330,89.787 387.871,89.747 389.216 C 89.717 390.197,89.672 391.675,89.647 392.500 C 89.609 393.700,89.445 394.000,88.827 394.000 C 87.969 394.000,87.744 396.144,88.502 397.100 C 88.770 397.438,88.753 397.600,88.449 397.600 C 88.202 397.600,88.000 397.870,88.000 398.200 C 88.000 398.530,88.225 398.803,88.500 398.806 C 88.874 398.811,88.865 398.898,88.466 399.151 C 88.172 399.337,87.947 399.604,87.966 399.745 C 88.077 400.572,87.921 400.800,87.243 400.800 C 86.826 400.800,86.376 401.085,86.243 401.433 C 85.891 402.350,85.939 402.484,86.500 402.147 C 86.892 401.911,86.897 401.974,86.522 402.438 C 86.259 402.763,86.106 403.698,86.183 404.517 C 86.303 405.808,86.194 406.036,85.360 406.246 C 84.832 406.378,84.400 406.659,84.400 406.870 C 84.400 407.081,84.805 407.153,85.300 407.031 C 85.795 406.908,85.974 406.911,85.698 407.038 C 85.421 407.165,85.314 407.461,85.459 407.696 C 85.606 407.933,85.537 408.008,85.304 407.864 C 85.073 407.721,84.775 407.888,84.642 408.235 C 84.298 409.131,84.339 409.285,84.840 408.975 C 85.153 408.782,85.150 408.946,84.831 409.543 C 84.583 410.005,84.466 410.848,84.569 411.416 C 84.823 412.820,84.485 413.547,83.674 413.335 C 83.140 413.196,82.993 413.454,82.964 414.582 C 82.921 416.316,82.807 416.442,81.241 416.486 C 80.558 416.506,80.000 416.685,80.000 416.884 C 80.000 417.084,79.820 417.136,79.600 417.000 C 79.380 416.864,79.200 416.223,79.200 415.576 C 79.200 414.809,78.996 414.400,78.613 414.400 C 78.229 414.400,78.114 414.169,78.281 413.734 C 78.445 413.306,78.379 413.166,78.096 413.341 C 77.365 413.793,77.027 412.732,77.119 410.274 C 77.201 408.105,77.152 407.961,76.404 408.199 C 75.529 408.477,75.510 408.400,75.518 404.677 C 75.521 402.922,75.470 402.817,74.931 403.477 C 74.375 404.158,74.352 404.148,74.533 403.299 C 74.639 402.804,74.562 402.500,74.363 402.623 C 74.163 402.746,74.000 402.127,74.000 401.247 C 74.000 400.367,73.811 399.531,73.581 399.388 C 73.294 399.211,73.309 398.950,73.630 398.564 C 73.994 398.125,73.976 397.999,73.549 397.994 C 73.184 397.990,73.147 397.889,73.437 397.694 C 74.310 397.108,74.103 393.880,73.208 394.114 C 72.627 394.266,72.265 394.012,71.837 393.153 C 71.517 392.512,71.421 392.089,71.625 392.215 C 71.828 392.341,71.957 391.984,71.910 391.422 C 71.864 390.860,71.640 390.397,71.413 390.394 C 71.141 390.390,71.136 390.288,71.400 390.094 C 71.951 389.689,72.088 388.800,71.600 388.800 C 71.380 388.800,71.200 389.014,71.200 389.276 C 71.200 389.539,70.975 389.445,70.700 389.069 C 70.369 388.616,70.219 387.039,70.257 384.396 C 70.296 381.704,70.178 380.490,69.895 380.665 C 69.624 380.833,69.600 380.726,69.827 380.362 C 70.499 379.284,70.438 378.346,69.701 378.421 C 68.185 378.575,67.953 378.435,68.386 377.626 C 68.912 376.642,68.920 375.879,68.400 376.200 C 68.180 376.336,68.000 376.257,68.000 376.024 C 68.000 375.791,68.183 375.600,68.406 375.600 C 68.882 375.600,68.782 373.236,68.293 372.934 C 68.111 372.821,68.156 372.494,68.393 372.208 C 68.726 371.807,68.539 371.587,67.583 371.254 C 66.818 370.987,66.448 370.646,66.621 370.366 C 66.776 370.115,66.654 369.753,66.351 369.561 C 65.934 369.297,65.925 369.211,66.312 369.206 C 66.971 369.198,66.899 364.403,66.240 364.394 C 65.998 364.391,66.048 364.231,66.351 364.039 C 66.659 363.844,66.769 363.474,66.601 363.202 C 66.366 362.822,66.231 362.826,65.986 363.222 C 65.573 363.890,64.923 360.746,65.012 358.513 C 65.058 357.380,64.936 356.913,64.640 357.090 C 64.398 357.235,64.432 357.067,64.715 356.717 C 65.143 356.189,65.180 354.863,64.822 352.800 C 64.803 352.690,64.613 352.870,64.400 353.200 C 64.118 353.636,64.011 353.657,64.006 353.276 C 64.003 352.988,63.832 352.856,63.628 352.983 C 63.423 353.109,63.142 353.030,63.004 352.807 C 62.859 352.571,63.226 352.380,63.876 352.354 C 64.494 352.328,64.702 352.228,64.338 352.132 C 63.504 351.910,63.098 350.352,63.423 348.618 C 63.566 347.855,63.469 346.903,63.197 346.394 C 62.935 345.904,62.897 345.613,63.113 345.746 C 63.339 345.886,63.486 345.496,63.459 344.826 C 63.409 343.603,62.901 343.420,62.163 344.361 C 61.804 344.817,61.662 344.824,61.399 344.399 C 61.176 344.038,61.232 343.973,61.581 344.188 C 61.957 344.421,62.012 344.269,61.798 343.595 C 61.640 343.097,61.527 340.535,61.547 337.903 L 61.583 333.118 60.665 333.348 C 59.809 333.563,59.756 333.470,59.873 331.989 C 59.943 331.106,59.820 330.400,59.596 330.400 C 59.356 330.400,59.393 330.080,59.687 329.610 C 60.076 328.987,60.077 328.717,59.690 328.330 C 59.420 328.060,59.203 327.651,59.206 327.420 C 59.209 327.189,59.387 327.270,59.600 327.600 C 59.900 328.064,59.989 327.941,59.994 327.053 C 59.999 326.056,59.874 325.931,59.037 326.091 C 58.301 326.232,58.128 326.132,58.304 325.672 C 58.449 325.296,58.370 325.171,58.096 325.341 C 57.853 325.491,57.525 325.402,57.366 325.145 C 57.173 324.832,57.251 324.784,57.601 325.001 C 57.992 325.242,58.068 325.105,57.900 324.462 C 57.776 323.987,57.838 323.700,58.037 323.823 C 58.237 323.947,58.400 323.063,58.400 321.853 C 58.400 320.100,58.259 319.622,57.700 319.476 C 57.058 319.308,57.060 319.289,57.730 319.246 C 59.022 319.164,58.476 315.797,57.172 315.809 L 56.180 315.818 56.269 312.009 C 56.382 307.170,56.259 306.730,54.873 307.032 C 54.261 307.165,53.996 307.122,54.256 306.932 C 54.750 306.573,54.777 302.243,54.289 301.756 C 53.853 301.320,53.942 300.717,54.400 301.000 C 54.938 301.333,54.926 297.383,54.386 296.374 C 54.077 295.796,54.102 295.598,54.486 295.594 C 54.858 295.589,54.839 295.486,54.419 295.220 C 54.100 295.018,53.695 294.942,53.519 295.050 C 53.344 295.158,53.197 294.202,53.194 292.924 C 53.191 291.646,53.026 290.345,52.829 290.033 C 52.616 289.697,52.623 289.067,52.845 288.481 C 53.378 287.079,52.923 285.934,51.892 286.080 C 51.080 286.196,51.048 286.038,51.025 281.800 C 51.011 279.380,50.837 277.147,50.638 276.838 C 50.388 276.450,50.419 276.365,50.738 276.562 C 51.012 276.731,51.200 276.593,51.200 276.224 C 51.200 275.867,50.858 275.600,50.400 275.600 C 49.960 275.600,49.600 275.409,49.600 275.176 C 49.600 274.943,49.436 274.854,49.235 274.978 C 48.821 275.234,48.896 274.171,49.322 273.745 C 49.741 273.325,49.656 268.451,49.214 267.626 C 48.951 267.135,48.474 266.948,47.714 267.038 C 47.101 267.111,46.914 267.075,47.299 266.957 C 47.794 266.804,47.903 266.547,47.673 266.071 C 47.348 265.401,47.385 264.011,47.850 259.294 C 48.079 256.972,48.042 256.805,47.349 257.024 C 46.656 257.243,46.652 257.227,47.300 256.810 C 48.279 256.181,48.172 255.280,47.100 255.128 C 46.343 255.020,46.180 254.715,46.072 253.207 C 46.002 252.220,45.732 251.278,45.472 251.113 C 45.130 250.895,45.151 250.811,45.549 250.806 C 46.014 250.801,46.014 250.697,45.549 250.123 C 45.176 249.663,45.160 249.543,45.500 249.747 C 45.837 249.949,46.000 249.771,46.000 249.200 C 46.000 248.734,45.840 248.451,45.645 248.572 C 45.450 248.692,45.195 248.423,45.077 247.973 C 44.895 247.279,44.955 247.231,45.470 247.658 C 45.988 248.088,46.057 248.018,45.938 247.185 C 45.852 246.578,45.497 246.161,45.000 246.083 C 44.340 245.979,44.305 246.030,44.800 246.372 C 45.130 246.601,45.197 246.791,44.949 246.794 C 44.701 246.797,44.274 246.530,44.000 246.200 C 43.726 245.870,43.669 245.600,43.873 245.600 C 44.630 245.600,44.480 239.552,43.707 238.920 C 43.318 238.601,43.213 238.447,43.472 238.577 C 43.732 238.707,44.058 238.630,44.196 238.407 C 44.334 238.183,44.250 238.000,44.010 238.000 C 43.701 238.000,43.694 237.772,43.986 237.226 C 44.754 235.791,44.517 233.876,43.600 234.116 C 42.929 234.291,42.800 234.128,42.800 233.107 C 42.800 232.421,42.494 231.650,42.100 231.343 C 41.433 230.824,41.433 230.810,42.100 231.042 C 42.882 231.314,43.154 229.466,42.400 229.000 C 42.180 228.864,42.000 228.573,42.000 228.353 C 42.000 228.133,42.162 228.053,42.360 228.176 C 42.559 228.298,42.703 227.763,42.681 226.987 C 42.649 225.864,42.452 225.528,41.720 225.344 C 40.697 225.087,40.666 224.880,40.725 218.689 C 40.744 216.758,40.618 215.265,40.446 215.372 C 40.274 215.478,40.133 215.311,40.133 215.000 C 40.133 214.689,40.283 214.528,40.467 214.641 C 41.109 215.038,40.792 214.424,39.950 213.639 C 39.482 213.204,39.100 212.390,39.100 211.831 C 39.100 211.272,38.925 210.923,38.710 211.056 C 38.458 211.211,38.456 211.032,38.704 210.548 C 39.480 209.034,39.099 206.214,38.100 206.072 C 37.065 205.925,37.107 206.210,37.115 199.452 C 37.121 194.726,37.060 194.288,36.361 194.106 C 35.780 193.954,35.588 193.517,35.549 192.253 C 35.342 185.506,35.296 185.093,34.797 185.402 C 34.325 185.694,33.616 184.034,33.897 183.295 C 34.003 183.017,33.900 182.561,33.668 182.281 C 33.401 181.960,33.382 181.558,33.617 181.187 C 34.190 180.281,34.069 179.890,33.300 180.158 C 32.655 180.383,32.652 180.361,33.264 179.883 C 34.479 178.934,34.132 173.724,32.823 173.268 C 31.904 172.947,31.805 172.719,31.874 171.055 C 31.946 169.311,31.514 168.587,31.065 169.700 C 30.907 170.092,30.856 170.089,30.832 169.687 C 30.814 169.406,31.070 169.071,31.400 168.945 C 31.824 168.782,32.000 168.121,32.000 166.691 C 32.000 165.577,31.889 164.778,31.752 164.914 C 31.013 165.653,30.301 163.800,30.316 161.176 C 30.327 159.301,30.192 158.481,29.904 158.659 C 29.628 158.830,29.596 158.730,29.813 158.379 C 30.363 157.489,30.398 155.880,29.881 155.242 C 29.503 154.773,29.506 154.710,29.900 154.947 C 30.261 155.164,30.400 154.865,30.400 153.866 C 30.400 152.489,29.636 151.723,28.949 152.412 C 28.750 152.611,28.661 151.886,28.742 150.730 C 28.840 149.329,28.716 148.593,28.342 148.356 C 28.044 148.167,27.990 148.009,28.222 148.006 C 28.453 148.003,28.659 147.280,28.678 146.400 C 28.698 145.520,28.553 144.800,28.357 144.800 C 28.161 144.800,28.000 144.609,28.000 144.376 C 28.000 144.143,28.208 144.081,28.462 144.238 C 28.748 144.415,28.815 144.348,28.638 144.062 C 28.260 143.450,27.318 143.472,27.065 144.100 C 26.819 144.710,26.676 142.982,26.720 139.900 C 26.737 138.635,26.583 137.600,26.376 137.600 C 26.169 137.600,26.000 137.409,26.000 137.176 C 26.000 136.943,26.145 136.842,26.321 136.951 C 26.498 137.061,26.649 136.486,26.656 135.675 C 26.664 134.864,26.591 134.541,26.494 134.958 C 26.360 135.538,26.242 135.591,25.990 135.184 C 25.717 134.741,25.553 134.741,25.021 135.182 C 24.478 135.633,24.418 135.620,24.620 135.093 C 24.751 134.751,25.295 134.363,25.829 134.228 C 27.048 133.922,27.115 133.106,25.906 133.275 C 25.042 133.396,25.017 133.305,25.143 130.485 C 25.227 128.608,25.100 127.362,24.788 126.985 C 24.447 126.574,24.436 126.400,24.751 126.400 C 24.998 126.400,25.200 126.136,25.200 125.813 C 25.200 125.474,24.963 125.316,24.640 125.440 C 24.333 125.558,23.955 125.450,23.800 125.201 C 23.622 124.912,23.790 124.793,24.260 124.873 C 24.780 124.962,25.040 124.720,25.134 124.056 C 25.210 123.518,25.100 123.215,24.879 123.351 C 24.665 123.483,24.325 123.368,24.124 123.096 C 23.510 122.268,22.769 120.334,23.157 120.574 C 23.357 120.697,23.503 120.180,23.482 119.424 C 23.460 118.668,23.311 118.132,23.149 118.231 C 22.987 118.331,22.739 118.226,22.598 117.997 C 22.456 117.768,22.579 117.630,22.870 117.690 C 23.170 117.752,23.400 117.453,23.400 117.000 C 23.400 116.554,23.169 116.247,22.879 116.307 C 21.901 116.508,21.391 115.421,21.465 113.296 C 21.507 112.094,21.380 111.289,21.169 111.419 C 20.966 111.545,20.800 111.467,20.800 111.247 C 20.800 111.027,20.980 110.736,21.200 110.600 C 21.805 110.226,21.679 108.163,21.018 107.615 C 20.697 107.349,20.292 107.219,20.118 107.327 C 19.943 107.435,19.817 106.326,19.838 104.862 C 19.884 101.612,19.868 101.579,18.435 101.990 C 17.742 102.189,17.123 102.163,16.886 101.926 C 16.625 101.665,16.405 101.669,16.240 101.936 C 16.081 102.192,15.543 102.213,14.774 101.992 C 13.856 101.729,13.505 101.782,13.343 102.205 M127.696 228.588 C 127.799 229.131,127.752 229.494,127.590 229.394 C 127.160 229.128,126.820 227.600,127.191 227.600 C 127.365 227.600,127.592 228.045,127.696 228.588 M161.778 327.235 C 161.631 327.474,161.686 327.846,161.901 328.061 C 162.157 328.317,162.368 328.166,162.509 327.626 C 162.736 326.758,162.238 326.491,161.778 327.235 M177.782 406.103 C 177.535 406.747,176.650 406.805,176.112 406.214 C 175.940 406.026,176.005 405.989,176.255 406.131 C 176.505 406.274,176.935 406.119,177.212 405.786 C 177.809 405.066,178.114 405.236,177.782 406.103 M228.933 481.389 C 228.933 481.725,229.188 482.000,229.500 482.000 C 229.812 482.000,229.995 481.786,229.908 481.525 C 229.667 480.800,228.933 480.697,228.933 481.389 M221.200 506.176 C 221.200 506.493,221.020 506.864,220.800 507.000 C 220.580 507.136,220.400 506.877,220.400 506.424 C 220.400 505.971,220.580 505.600,220.800 505.600 C 221.020 505.600,221.200 505.859,221.200 506.176 M266.400 506.024 C 266.400 506.257,266.220 506.336,266.000 506.200 C 265.780 506.064,265.600 506.241,265.600 506.592 C 265.600 507.119,265.502 507.141,265.042 506.716 C 264.566 506.277,264.581 506.160,265.142 505.928 C 266.110 505.528,266.400 505.550,266.400 506.024 M201.004 516.007 C 201.142 516.230,201.451 516.292,201.689 516.145 C 201.935 515.993,202.010 516.061,201.861 516.302 C 201.541 516.819,201.946 518.000,202.443 518.000 C 202.966 518.000,202.879 516.639,202.320 516.080 C 201.737 515.497,200.652 515.437,201.004 516.007 M272.829 529.600 C 273.033 529.600,273.200 529.774,273.200 529.987 C 273.200 530.201,272.930 530.271,272.600 530.145 C 272.270 530.018,272.021 529.529,272.046 529.057 C 272.083 528.381,272.131 528.348,272.276 528.900 C 272.376 529.285,272.625 529.600,272.829 529.600 M279.955 552.291 C 280.345 553.040,280.321 553.145,279.809 552.948 C 279.474 552.820,279.200 552.344,279.200 551.891 C 279.200 550.967,279.292 551.016,279.955 552.291 M260.564 593.258 C 260.465 593.418,260.040 593.523,259.620 593.492 C 259.199 593.460,258.936 593.303,259.036 593.142 C 259.135 592.982,259.560 592.877,259.980 592.908 C 260.401 592.940,260.664 593.097,260.564 593.258 M164.705 593.875 C 164.322 593.975,163.602 593.979,163.105 593.883 C 162.607 593.787,162.920 593.705,163.800 593.701 C 164.680 593.696,165.087 593.775,164.705 593.875 " stroke="none" fill="#04d49c" fill-rule="evenodd"></path><path id="path1" d="M376.667 11.467 C 376.520 11.613,376.400 12.063,376.400 12.467 C 376.400 12.933,376.109 13.200,375.600 13.200 C 374.882 13.200,374.800 13.467,374.800 15.800 C 374.800 18.133,374.718 18.400,374.000 18.400 C 373.263 18.400,373.200 18.667,373.200 21.800 C 373.200 25.160,373.188 25.200,372.200 25.200 L 371.200 25.200 371.200 30.400 C 371.200 35.333,371.159 35.600,370.400 35.600 C 369.659 35.600,369.600 35.867,369.600 39.200 C 369.600 42.533,369.541 42.800,368.800 42.800 C 368.036 42.800,368.000 43.067,368.000 48.800 L 368.000 54.800 367.000 54.800 L 366.000 54.800 366.000 59.200 C 366.000 63.333,365.952 63.600,365.200 63.600 C 364.436 63.600,364.400 63.867,364.400 69.600 C 364.400 75.333,364.364 75.600,363.600 75.600 C 362.859 75.600,362.800 75.867,362.800 79.200 C 362.800 82.773,362.793 82.800,361.800 82.800 L 360.800 82.800 360.800 89.600 C 360.800 96.133,360.769 96.400,360.000 96.400 C 359.259 96.400,359.200 96.667,359.200 100.000 C 359.200 103.246,359.127 103.600,358.454 103.600 C 357.519 103.600,357.200 105.598,357.200 111.456 C 357.200 115.333,357.149 115.600,356.400 115.600 C 355.648 115.600,355.600 115.867,355.600 120.000 C 355.600 124.133,355.552 124.400,354.800 124.400 C 354.036 124.400,354.000 124.667,354.000 130.372 C 354.000 136.261,353.987 136.346,353.100 136.472 C 352.239 136.595,352.195 136.785,352.086 140.900 C 351.982 144.870,351.913 145.200,351.186 145.200 C 350.445 145.200,350.400 145.496,350.400 150.400 C 350.400 155.333,350.359 155.600,349.600 155.600 C 348.841 155.600,348.800 155.867,348.800 160.772 C 348.800 165.831,348.780 165.947,347.900 166.072 C 347.027 166.196,346.997 166.355,346.888 171.300 C 346.783 176.070,346.725 176.400,345.988 176.400 C 345.244 176.400,345.200 176.693,345.200 181.600 C 345.200 186.533,345.159 186.800,344.400 186.800 C 343.659 186.800,343.600 187.067,343.600 190.400 C 343.600 193.973,343.593 194.000,342.600 194.000 L 341.600 194.000 341.600 200.000 C 341.600 205.733,341.564 206.000,340.800 206.000 C 340.059 206.000,340.000 206.267,340.000 209.600 C 340.000 212.933,339.941 213.200,339.200 213.200 C 338.441 213.200,338.400 213.467,338.400 218.400 L 338.400 223.600 337.400 223.600 C 336.436 223.600,336.400 223.693,336.400 226.200 C 336.400 228.533,336.318 228.800,335.600 228.800 C 334.851 228.800,334.800 229.067,334.800 232.953 C 334.800 236.734,334.730 237.125,334.020 237.311 C 333.368 237.481,333.221 237.930,333.120 240.057 C 333.012 242.347,332.910 242.613,332.100 242.728 C 331.248 242.849,331.200 243.035,331.200 246.228 C 331.200 249.333,331.137 249.600,330.400 249.600 C 329.719 249.600,329.600 249.333,329.600 247.800 C 329.600 246.281,329.478 246.000,328.819 246.000 C 328.141 246.000,328.023 245.672,327.919 243.500 C 327.812 241.255,327.708 240.987,326.900 240.872 C 326.073 240.755,326.000 240.535,326.000 238.172 C 326.000 235.867,325.917 235.600,325.200 235.600 C 324.463 235.600,324.400 235.333,324.400 232.200 C 324.400 229.067,324.337 228.800,323.600 228.800 C 322.882 228.800,322.800 228.533,322.800 226.200 C 322.800 223.693,322.764 223.600,321.800 223.600 C 320.807 223.600,320.800 223.573,320.800 220.000 C 320.800 216.667,320.741 216.400,320.000 216.400 C 319.263 216.400,319.200 216.133,319.200 213.000 C 319.200 209.640,319.188 209.600,318.200 209.600 C 317.213 209.600,317.200 209.557,317.200 206.247 C 317.200 203.230,317.120 202.872,316.400 202.684 C 315.664 202.492,315.600 202.138,315.600 198.237 C 315.600 194.267,315.550 194.000,314.800 194.000 C 314.082 194.000,314.000 193.733,314.000 191.400 C 314.000 188.893,313.964 188.800,313.000 188.800 L 312.000 188.800 312.000 184.400 C 312.000 180.267,311.952 180.000,311.200 180.000 C 310.482 180.000,310.400 179.733,310.400 177.400 C 310.400 175.082,310.315 174.800,309.614 174.800 C 308.887 174.800,308.818 174.470,308.714 170.500 C 308.605 166.385,308.561 166.195,307.700 166.072 C 306.873 165.955,306.800 165.735,306.800 163.372 C 306.800 161.067,306.717 160.800,306.000 160.800 C 305.263 160.800,305.200 160.533,305.200 157.400 C 305.200 154.267,305.137 154.000,304.400 154.000 C 303.682 154.000,303.600 153.733,303.600 151.400 C 303.600 148.893,303.564 148.800,302.600 148.800 C 301.607 148.800,301.600 148.773,301.600 145.200 C 301.600 141.867,301.541 141.600,300.800 141.600 C 300.267 141.600,300.000 141.333,300.000 140.800 C 300.000 140.267,299.733 140.000,299.200 140.000 C 298.667 140.000,298.400 139.733,298.400 139.200 C 298.400 138.459,298.133 138.400,294.800 138.400 L 291.200 138.400 291.200 140.000 C 291.200 141.333,291.067 141.600,290.400 141.600 C 289.813 141.600,289.600 141.867,289.600 142.600 C 289.600 143.333,289.387 143.600,288.800 143.600 C 288.051 143.600,288.000 143.867,288.000 147.772 C 288.000 151.794,287.968 151.949,287.100 152.072 C 286.352 152.178,286.179 152.487,286.077 153.900 C 285.978 155.274,285.805 155.600,285.177 155.600 C 284.448 155.600,284.400 155.918,284.400 160.800 C 284.400 165.733,284.359 166.000,283.600 166.000 C 282.859 166.000,282.800 166.267,282.800 169.600 C 282.800 173.173,282.793 173.200,281.800 173.200 L 280.800 173.200 280.800 178.400 C 280.800 183.333,280.759 183.600,280.000 183.600 C 279.263 183.600,279.200 183.867,279.200 187.000 C 279.200 190.133,279.137 190.400,278.400 190.400 C 277.638 190.400,277.600 190.667,277.600 195.967 C 277.600 202.094,277.472 202.800,276.357 202.800 C 275.662 202.800,275.600 203.146,275.600 207.000 C 275.600 210.933,275.549 211.200,274.800 211.200 C 274.035 211.200,274.000 211.467,274.000 217.372 C 274.000 223.468,273.989 223.546,273.100 223.672 C 272.243 223.794,272.195 223.994,272.086 227.857 C 271.984 231.503,271.893 231.935,271.186 232.119 C 270.448 232.312,270.400 232.696,270.400 238.363 C 270.400 244.133,270.365 244.400,269.600 244.400 C 268.848 244.400,268.800 244.667,268.800 248.800 L 268.800 253.200 267.800 253.200 L 266.800 253.200 266.800 258.400 C 266.800 263.333,266.759 263.600,266.000 263.600 C 265.241 263.600,265.200 263.867,265.200 268.800 C 265.200 273.733,265.159 274.000,264.400 274.000 C 263.651 274.000,263.600 274.267,263.600 278.157 C 263.600 282.257,263.586 282.317,262.600 282.564 L 261.600 282.815 261.600 288.808 C 261.600 294.533,261.564 294.800,260.800 294.800 C 260.063 294.800,260.000 295.067,260.000 298.200 C 260.000 301.333,259.937 301.600,259.200 301.600 C 258.448 301.600,258.400 301.867,258.400 306.000 L 258.400 310.400 257.400 310.400 C 256.436 310.400,256.400 310.493,256.400 313.000 C 256.400 315.333,256.318 315.600,255.600 315.600 C 254.848 315.600,254.800 315.867,254.800 320.000 C 254.800 324.133,254.752 324.400,254.000 324.400 C 253.319 324.400,253.200 324.667,253.200 326.200 C 253.200 327.853,253.119 328.000,252.200 328.000 C 251.400 328.000,251.200 327.800,251.200 327.000 C 251.200 326.267,250.987 326.000,250.400 326.000 C 249.730 326.000,249.600 325.733,249.600 324.363 C 249.600 323.072,249.434 322.682,248.815 322.520 C 248.130 322.341,248.016 321.904,247.915 319.057 C 247.808 316.025,247.738 315.791,246.900 315.672 C 246.121 315.562,246.000 315.305,246.000 313.772 C 246.000 312.267,245.880 312.000,245.200 312.000 C 244.451 312.000,244.400 311.733,244.400 307.800 C 244.400 303.867,244.349 303.600,243.600 303.600 C 242.882 303.600,242.800 303.333,242.800 301.000 C 242.800 298.493,242.764 298.400,241.800 298.400 C 240.807 298.400,240.800 298.373,240.800 294.800 C 240.800 291.467,240.741 291.200,240.000 291.200 C 239.282 291.200,239.200 290.933,239.200 288.600 C 239.200 286.093,239.164 286.000,238.200 286.000 C 237.212 286.000,237.200 285.960,237.200 282.600 C 237.200 279.467,237.137 279.200,236.400 279.200 C 235.682 279.200,235.600 278.933,235.600 276.600 C 235.600 274.284,235.514 274.000,234.816 274.000 C 234.105 274.000,234.020 273.671,233.916 270.500 C 233.807 267.216,233.745 266.992,232.900 266.872 C 232.141 266.764,232.000 266.498,232.000 265.172 C 232.000 263.867,231.864 263.600,231.200 263.600 C 230.519 263.600,230.400 263.333,230.400 261.800 C 230.400 260.267,230.281 260.000,229.600 260.000 C 229.067 260.000,228.800 259.733,228.800 259.200 C 228.800 258.459,228.533 258.400,225.200 258.400 L 221.600 258.400 221.600 260.000 C 221.600 261.333,221.467 261.600,220.800 261.600 C 220.119 261.600,220.000 261.867,220.000 263.400 C 220.000 264.933,219.881 265.200,219.200 265.200 C 218.463 265.200,218.400 265.467,218.400 268.572 C 218.400 271.765,218.352 271.951,217.500 272.072 C 216.752 272.178,216.579 272.487,216.477 273.900 C 216.378 275.274,216.205 275.600,215.577 275.600 C 214.855 275.600,214.800 275.910,214.800 280.000 C 214.800 284.133,214.752 284.400,214.000 284.400 C 213.263 284.400,213.200 284.667,213.200 287.772 C 213.200 290.965,213.152 291.151,212.300 291.272 C 211.427 291.396,211.397 291.555,211.288 296.500 C 211.183 301.270,211.125 301.600,210.388 301.600 C 209.652 301.600,209.600 301.889,209.600 306.000 C 209.600 310.133,209.552 310.400,208.800 310.400 C 208.041 310.400,208.000 310.667,208.000 315.600 L 208.000 320.800 207.000 320.800 L 206.000 320.800 206.000 325.200 C 206.000 329.333,205.952 329.600,205.200 329.600 C 204.436 329.600,204.400 329.867,204.400 335.600 C 204.400 341.333,204.364 341.600,203.600 341.600 C 202.848 341.600,202.800 341.867,202.800 346.000 L 202.800 350.400 201.800 350.400 L 200.800 350.400 200.800 356.373 C 200.800 361.995,200.753 362.361,200.000 362.600 C 199.254 362.837,199.200 363.205,199.200 368.027 C 199.200 372.933,199.159 373.200,198.400 373.200 C 197.691 373.200,197.600 373.467,197.600 375.539 C 197.600 381.494,197.117 385.200,196.340 385.200 C 195.658 385.200,195.600 385.607,195.600 390.400 C 195.600 395.333,195.559 395.600,194.800 395.600 C 194.031 395.600,194.000 395.867,194.000 402.572 C 194.000 409.498,193.994 409.545,193.100 409.672 C 192.221 409.797,192.200 409.919,192.200 414.800 L 192.200 419.800 194.900 419.918 C 197.272 420.022,197.600 420.132,197.600 420.818 C 197.600 421.574,197.947 421.600,207.972 421.600 L 218.344 421.600 218.472 422.500 L 218.600 423.400 228.900 423.507 C 238.868 423.610,239.200 423.639,239.200 424.407 C 239.200 425.162,239.484 425.200,245.200 425.200 C 250.933 425.200,251.200 425.236,251.200 426.000 C 251.200 426.759,251.467 426.800,256.372 426.800 C 261.431 426.800,261.547 426.820,261.672 427.700 C 261.795 428.561,261.985 428.605,266.100 428.714 C 270.070 428.818,270.400 428.887,270.400 429.614 C 270.400 430.348,270.692 430.400,274.800 430.400 C 278.933 430.400,279.200 430.448,279.200 431.200 C 279.200 431.937,279.467 432.000,282.572 432.000 C 285.765 432.000,285.951 432.048,286.072 432.900 C 286.187 433.708,286.455 433.812,288.700 433.919 C 290.872 434.023,291.200 434.141,291.200 434.819 C 291.200 435.536,291.496 435.600,294.800 435.600 C 298.133 435.600,298.400 435.659,298.400 436.400 C 298.400 437.064,298.667 437.200,299.972 437.200 C 301.298 437.200,301.564 437.341,301.672 438.100 C 301.792 438.945,302.016 439.007,305.300 439.116 C 308.471 439.220,308.800 439.305,308.800 440.016 C 308.800 440.660,309.077 440.800,310.353 440.800 C 311.570 440.800,311.952 440.973,312.116 441.600 C 312.298 442.298,312.662 442.400,314.963 442.400 C 317.509 442.400,317.600 442.434,317.600 443.400 C 317.600 444.300,317.760 444.400,319.200 444.400 C 320.533 444.400,320.800 444.533,320.800 445.200 C 320.800 445.881,321.067 446.000,322.600 446.000 C 324.133 446.000,324.400 446.119,324.400 446.800 C 324.400 447.481,324.667 447.600,326.200 447.600 C 327.853 447.600,328.000 447.681,328.000 448.600 C 328.000 449.500,328.160 449.600,329.600 449.600 C 330.933 449.600,331.200 449.733,331.200 450.400 C 331.200 451.080,331.467 451.200,332.972 451.200 C 334.505 451.200,334.762 451.321,334.872 452.100 C 334.978 452.848,335.287 453.021,336.700 453.123 C 338.074 453.222,338.400 453.395,338.400 454.023 C 338.400 454.533,338.675 454.800,339.200 454.800 C 339.733 454.800,340.000 455.067,340.000 455.600 C 340.000 456.280,340.267 456.400,341.772 456.400 C 343.305 456.400,343.562 456.521,343.672 457.300 C 343.775 458.023,344.095 458.224,345.298 458.324 L 346.797 458.448 346.898 506.124 L 347.000 553.800 347.900 553.928 C 348.659 554.036,348.800 554.302,348.800 555.628 L 348.800 557.200 351.400 557.200 C 353.733 557.200,354.000 557.118,354.000 556.400 C 354.000 555.733,354.267 555.600,355.600 555.600 C 356.933 555.600,357.200 555.467,357.200 554.800 C 357.200 554.119,357.467 554.000,359.000 554.000 C 360.653 554.000,360.800 553.919,360.800 553.000 C 360.800 552.200,361.000 552.000,361.800 552.000 C 362.533 552.000,362.800 551.787,362.800 551.200 C 362.800 550.667,363.067 550.400,363.600 550.400 C 364.133 550.400,364.400 550.133,364.400 549.600 C 364.400 549.067,364.667 548.800,365.200 548.800 C 365.787 548.800,366.000 548.533,366.000 547.800 C 366.000 547.000,366.200 546.800,367.000 546.800 C 367.733 546.800,368.000 546.587,368.000 546.000 C 368.000 545.467,368.267 545.200,368.800 545.200 C 369.333 545.200,369.600 544.933,369.600 544.400 C 369.600 543.867,369.867 543.600,370.400 543.600 C 370.987 543.600,371.200 543.333,371.200 542.600 C 371.200 541.800,371.400 541.600,372.200 541.600 C 373.100 541.600,373.200 541.440,373.200 540.000 C 373.200 538.667,373.333 538.400,374.000 538.400 C 374.587 538.400,374.800 538.133,374.800 537.400 C 374.800 536.667,375.013 536.400,375.600 536.400 C 376.281 536.400,376.400 536.133,376.400 534.600 C 376.400 532.947,376.481 532.800,377.400 532.800 C 378.300 532.800,378.400 532.640,378.400 531.200 C 378.400 529.867,378.533 529.600,379.200 529.600 C 379.881 529.600,380.000 529.333,380.000 527.800 C 380.000 526.267,380.119 526.000,380.800 526.000 C 381.570 526.000,381.600 525.733,381.600 519.000 L 381.600 512.000 382.600 512.000 L 383.601 512.000 383.500 286.900 L 383.400 61.800 382.500 61.672 L 381.600 61.544 381.600 36.372 L 381.600 11.200 379.267 11.200 C 377.983 11.200,376.813 11.320,376.667 11.467 " stroke="none" fill="#2434cc" fill-rule="evenodd"></path><path id="path2" d="M13.282 106.000 C 13.282 108.369,13.319 108.484,13.699 107.300 C 13.988 106.398,13.988 105.602,13.699 104.700 C 13.319 103.516,13.282 103.631,13.282 106.000 M22.000 115.957 C 22.000 116.399,23.038 116.829,23.350 116.517 C 23.476 116.391,23.483 116.134,23.366 115.944 C 23.085 115.490,22.000 115.500,22.000 115.957 M25.534 134.269 C 25.168 134.366,24.759 134.731,24.625 135.079 C 24.421 135.611,24.482 135.630,25.001 135.200 C 25.674 134.640,25.693 134.649,26.286 135.752 C 26.629 136.391,26.684 136.315,26.645 135.253 C 26.620 134.565,26.510 134.022,26.400 134.047 C 26.290 134.072,25.900 134.172,25.534 134.269 M39.893 213.525 C 40.164 213.697,40.304 214.259,40.205 214.773 C 40.106 215.287,40.146 215.587,40.294 215.439 C 40.950 214.783,40.822 213.200,40.114 213.206 C 39.616 213.210,39.549 213.307,39.893 213.525 M127.086 228.406 C 127.395 229.590,127.917 229.745,127.696 228.588 C 127.592 228.045,127.365 227.600,127.191 227.600 C 127.017 227.600,126.970 227.963,127.086 228.406 M126.112 229.800 C 126.173 230.351,125.992 230.566,125.530 230.489 C 124.727 230.357,124.160 231.120,124.677 231.637 C 124.901 231.861,125.506 231.510,126.223 230.741 C 126.870 230.045,127.190 229.595,126.934 229.741 C 126.678 229.886,126.368 229.779,126.246 229.502 C 126.123 229.226,126.063 229.360,126.112 229.800 M142.571 236.400 C 142.571 236.840,142.809 237.200,143.100 237.200 C 143.504 237.200,143.528 237.012,143.200 236.400 C 142.965 235.960,142.727 235.600,142.672 235.600 C 142.617 235.600,142.571 235.960,142.571 236.400 M143.592 242.700 C 144.036 243.617,145.200 243.954,145.200 243.167 C 145.200 242.928,144.975 242.809,144.700 242.902 C 144.425 242.994,143.965 242.784,143.678 242.435 C 143.235 241.896,143.222 241.937,143.592 242.700 M144.522 246.365 C 144.697 247.514,145.200 247.903,145.200 246.890 C 145.200 246.427,145.019 245.936,144.799 245.799 C 144.569 245.657,144.451 245.899,144.522 246.365 M145.755 250.128 C 145.916 251.128,146.774 252.268,146.788 251.500 C 146.795 251.115,146.575 250.797,146.300 250.794 C 145.926 250.789,145.934 250.703,146.334 250.450 C 146.768 250.174,146.757 250.069,146.273 249.883 C 145.940 249.755,145.712 249.863,145.755 250.128 M147.446 258.575 C 147.678 259.180,148.800 259.767,148.800 259.284 C 148.800 259.123,148.447 258.772,148.015 258.502 C 147.368 258.098,147.268 258.111,147.446 258.575 M47.565 261.300 C 47.378 263.994,47.418 265.703,47.677 266.110 C 47.848 266.380,47.991 265.295,47.994 263.700 C 47.999 261.299,47.687 259.551,47.565 261.300 M148.592 265.587 C 148.887 266.064,150.400 266.378,150.400 265.963 C 150.400 265.763,150.265 265.586,150.100 265.569 C 149.935 265.553,149.484 265.478,149.098 265.405 C 148.712 265.331,148.484 265.413,148.592 265.587 M116.144 267.106 C 115.812 267.320,115.834 267.535,116.223 267.896 C 116.560 268.208,116.848 268.245,117.002 267.996 C 117.137 267.778,117.046 267.600,116.800 267.600 C 116.554 267.600,116.464 267.420,116.600 267.200 C 116.891 266.729,116.769 266.703,116.144 267.106 M151.396 272.807 C 151.258 273.030,151.007 273.128,150.839 273.024 C 150.671 272.920,150.533 273.080,150.533 273.379 C 150.533 273.807,150.690 273.825,151.267 273.466 C 151.670 273.214,152.000 272.871,152.000 272.704 C 152.000 272.275,151.692 272.327,151.396 272.807 M112.500 285.083 C 111.677 286.855,111.861 288.921,112.900 289.568 C 113.744 290.093,113.763 290.084,113.209 289.414 C 112.596 288.672,112.225 286.000,112.735 286.000 C 112.895 286.000,113.063 285.550,113.108 285.000 C 113.213 283.736,113.120 283.748,112.500 285.083 M52.696 288.756 C 52.587 289.171,52.653 289.756,52.843 290.056 C 53.077 290.426,53.190 290.184,53.194 289.300 C 53.201 287.845,52.993 287.618,52.696 288.756 M110.749 291.300 C 110.567 291.657,110.551 293.183,110.731 293.002 C 111.027 292.706,111.250 291.200,110.997 291.200 C 110.889 291.200,110.777 291.245,110.749 291.300 M154.500 292.144 C 153.463 292.657,153.269 293.302,154.266 292.919 C 154.662 292.767,154.831 292.826,154.683 293.065 C 154.547 293.286,154.660 293.467,154.936 293.467 C 155.211 293.467,155.471 293.047,155.514 292.533 C 155.556 292.020,155.548 291.622,155.496 291.649 C 155.443 291.676,154.995 291.899,154.500 292.144 M156.406 296.924 C 156.403 297.322,156.232 297.544,156.028 297.417 C 155.823 297.291,155.542 297.370,155.404 297.593 C 155.266 297.817,155.513 298.000,155.953 298.000 C 156.948 298.000,157.260 297.540,156.780 296.781 C 156.478 296.303,156.411 296.329,156.406 296.924 M109.494 298.639 C 109.156 298.978,109.605 300.000,110.092 300.000 C 110.338 300.000,110.315 299.780,110.032 299.439 C 109.675 299.008,109.687 298.830,110.083 298.670 C 110.367 298.556,110.405 298.449,110.167 298.432 C 109.928 298.414,109.626 298.508,109.494 298.639 M108.955 300.877 C 108.980 301.348,109.230 301.780,109.510 301.837 C 109.791 301.894,109.846 301.852,109.632 301.744 C 109.419 301.636,109.337 301.308,109.450 301.015 C 109.562 300.721,109.487 300.377,109.282 300.251 C 109.078 300.124,108.930 300.406,108.955 300.877 M107.400 307.106 C 107.036 307.374,106.648 308.400,106.911 308.400 C 106.972 308.400,107.330 308.040,107.707 307.600 C 108.377 306.817,108.194 306.523,107.400 307.106 M106.800 310.576 C 106.800 311.139,106.942 311.600,107.115 311.600 C 107.569 311.600,107.619 310.059,107.175 309.784 C 106.969 309.657,106.800 310.013,106.800 310.576 M160.000 314.387 C 160.000 314.601,159.775 314.720,159.500 314.653 C 159.225 314.586,159.136 314.607,159.302 314.700 C 159.469 314.792,159.513 315.017,159.401 315.199 C 159.288 315.381,159.497 315.486,159.865 315.432 C 160.553 315.331,161.017 314.000,160.365 314.000 C 160.164 314.000,160.000 314.174,160.000 314.387 M57.900 324.462 C 58.068 325.105,57.992 325.242,57.601 325.001 C 57.251 324.784,57.173 324.832,57.366 325.145 C 57.525 325.402,57.823 325.509,58.028 325.383 C 58.504 325.089,58.510 324.115,58.037 323.823 C 57.838 323.700,57.776 323.987,57.900 324.462 M161.434 327.056 C 161.295 327.417,161.460 328.137,161.800 328.656 C 162.560 329.816,162.800 329.845,162.800 328.776 C 162.800 328.323,162.632 328.056,162.428 328.183 C 161.691 328.638,161.492 327.469,162.215 326.939 C 162.829 326.491,162.846 326.400,162.319 326.400 C 161.971 326.400,161.572 326.695,161.434 327.056 M101.483 339.367 C 101.232 341.011,101.331 341.026,102.043 339.455 C 102.484 338.481,102.514 338.133,102.157 338.133 C 101.890 338.133,101.587 338.688,101.483 339.367 M164.841 343.351 C 164.481 343.785,164.560 343.949,165.214 344.120 C 165.851 344.286,165.948 344.219,165.626 343.832 C 165.396 343.554,165.325 343.208,165.470 343.063 C 165.615 342.918,165.635 342.800,165.516 342.800 C 165.396 342.800,165.092 343.048,164.841 343.351 M63.800 352.356 C 63.003 352.529,62.768 352.723,63.100 352.932 C 63.375 353.105,63.603 353.102,63.606 352.924 C 63.609 352.746,63.787 352.870,64.000 353.200 C 64.282 353.636,64.389 353.657,64.394 353.276 C 64.397 352.988,64.580 352.864,64.800 353.000 C 65.020 353.136,65.200 352.967,65.200 352.624 C 65.200 352.281,65.155 352.021,65.100 352.047 C 65.045 352.073,64.460 352.212,63.800 352.356 M167.326 355.751 C 167.442 356.054,167.359 356.481,167.142 356.698 C 166.881 356.959,166.939 357.168,167.313 357.311 C 167.719 357.467,167.890 357.197,167.913 356.364 C 167.932 355.724,167.759 355.200,167.530 355.200 C 167.302 355.200,167.210 355.448,167.326 355.751 M96.760 356.900 C 96.531 357.477,96.479 360.455,96.702 360.231 C 96.975 359.958,97.168 356.800,96.912 356.800 C 96.850 356.800,96.782 356.845,96.760 356.900 M168.400 361.849 C 168.400 362.380,168.509 362.408,169.000 362.000 C 169.330 361.726,169.600 361.434,169.600 361.351 C 169.600 361.268,169.330 361.200,169.000 361.200 C 168.670 361.200,168.400 361.492,168.400 361.849 M95.600 363.224 C 95.600 363.457,95.457 363.559,95.283 363.451 C 95.109 363.344,94.939 363.648,94.905 364.128 C 94.851 364.902,94.889 364.921,95.242 364.300 C 95.461 363.915,95.911 363.600,96.243 363.600 C 96.576 363.600,96.736 363.420,96.600 363.200 C 96.273 362.671,95.600 362.687,95.600 363.224 M91.614 379.174 C 91.083 380.166,91.087 380.800,91.624 380.800 C 91.857 380.800,91.946 380.636,91.822 380.436 C 91.478 379.879,92.028 378.770,92.504 379.064 C 92.749 379.216,92.805 379.131,92.638 378.862 C 92.248 378.230,92.094 378.276,91.614 379.174 M172.509 380.791 C 172.543 381.236,172.712 381.600,172.885 381.600 C 173.327 381.600,173.279 380.496,172.824 380.215 C 172.618 380.087,172.476 380.347,172.509 380.791 M91.333 383.831 C 91.195 384.190,91.407 384.751,91.823 385.131 C 92.511 385.759,92.524 385.758,92.033 385.105 C 91.746 384.723,91.615 384.138,91.743 383.805 C 91.870 383.472,91.885 383.200,91.775 383.200 C 91.665 383.200,91.466 383.484,91.333 383.831 M174.175 389.049 C 174.447 390.554,174.717 390.650,174.658 389.221 C 174.631 388.549,174.468 388.000,174.296 388.000 C 174.125 388.000,174.070 388.472,174.175 389.049 M175.886 402.120 C 175.742 402.494,175.799 402.800,176.013 402.800 C 176.226 402.800,176.400 403.070,176.400 403.400 C 176.400 403.730,176.659 404.000,176.976 404.000 C 177.293 404.000,177.671 404.191,177.816 404.425 C 178.165 404.990,176.817 406.452,176.247 406.126 C 176.001 405.986,175.940 406.026,176.112 406.214 C 177.094 407.293,178.957 405.353,178.021 404.226 C 177.752 403.901,177.752 403.608,178.023 403.337 C 178.295 403.065,178.232 402.933,177.831 402.933 C 177.503 402.933,177.328 403.083,177.441 403.267 C 177.555 403.450,177.472 403.600,177.257 403.600 C 177.042 403.600,176.705 403.114,176.507 402.520 C 176.213 401.639,176.099 401.565,175.886 402.120 M74.291 403.225 C 74.401 403.646,74.650 403.892,74.845 403.772 C 75.372 403.446,75.275 402.914,74.645 402.673 C 74.257 402.524,74.151 402.689,74.291 403.225 M84.900 407.065 C 84.625 407.176,84.414 407.567,84.432 407.933 C 84.451 408.353,84.538 408.414,84.666 408.098 C 84.777 407.821,85.061 407.714,85.296 407.859 C 85.537 408.008,85.608 407.937,85.459 407.696 C 85.314 407.461,85.421 407.177,85.698 407.066 C 85.974 406.954,86.020 406.863,85.800 406.863 C 85.580 406.863,85.175 406.954,84.900 407.065 M78.254 413.802 C 78.115 414.165,78.256 414.400,78.613 414.400 C 79.260 414.400,79.407 413.775,78.842 413.426 C 78.645 413.304,78.381 413.474,78.254 413.802 M185.974 448.776 C 186.464 449.086,186.468 449.246,185.996 449.870 C 185.476 450.557,185.487 450.561,186.169 449.938 C 186.907 449.265,186.741 448.395,185.876 448.406 C 185.577 448.410,185.614 448.548,185.974 448.776 M187.883 457.871 C 188.027 458.247,187.865 458.336,187.345 458.167 C 186.768 457.979,186.727 458.015,187.164 458.325 C 187.474 458.546,187.939 458.645,188.197 458.546 C 188.822 458.306,188.801 457.333,188.171 457.333 C 187.899 457.333,187.769 457.575,187.883 457.871 M252.513 469.966 C 252.479 470.416,252.575 470.758,252.725 470.728 C 253.348 470.603,254.377 471.314,254.136 471.704 C 253.984 471.949,254.069 472.005,254.338 471.838 C 255.030 471.410,254.894 470.400,254.144 470.400 C 253.783 470.400,253.283 470.119,253.031 469.775 C 252.632 469.229,252.566 469.253,252.513 469.966 M190.881 472.341 C 190.467 472.604,190.490 472.776,190.990 473.192 C 191.529 473.639,191.579 473.610,191.341 472.991 C 191.136 472.455,191.201 472.353,191.594 472.596 C 191.946 472.814,192.028 472.769,191.838 472.462 C 191.502 471.918,191.541 471.923,190.881 472.341 M231.815 475.576 C 231.699 475.763,231.868 476.017,232.189 476.141 C 232.511 476.264,232.869 476.212,232.985 476.024 C 233.101 475.837,232.932 475.583,232.611 475.459 C 232.289 475.336,231.931 475.388,231.815 475.576 M230.122 480.681 C 229.860 480.775,229.744 481.110,229.865 481.426 C 230.006 481.792,229.828 482.000,229.376 482.000 C 228.552 482.000,228.925 482.513,229.848 482.648 C 230.192 482.699,230.373 482.640,230.251 482.517 C 230.128 482.395,230.216 481.943,230.446 481.513 C 230.913 480.641,230.830 480.427,230.122 480.681 M257.603 480.789 C 257.128 481.090,257.108 481.268,257.503 481.663 C 257.777 481.937,258.014 482.079,258.031 481.980 C 258.047 481.881,258.122 481.485,258.195 481.100 C 258.351 480.288,258.376 480.301,257.603 480.789 M226.800 488.976 C 226.800 489.867,227.426 490.044,227.492 489.172 C 227.524 488.748,227.381 488.400,227.175 488.400 C 226.969 488.400,226.800 488.659,226.800 488.976 M260.000 490.036 C 260.000 490.496,261.061 491.205,261.337 490.930 C 261.887 490.380,261.567 489.652,260.800 489.710 C 260.360 489.743,260.000 489.890,260.000 490.036 M221.439 505.042 C 221.304 505.394,220.953 505.591,220.659 505.478 C 220.278 505.332,220.178 505.549,220.308 506.232 C 220.483 507.147,221.200 507.221,221.200 506.323 C 221.200 506.087,221.588 505.558,222.061 505.147 C 222.717 504.578,222.775 504.400,222.304 504.400 C 221.964 504.400,221.575 504.689,221.439 505.042 M265.403 505.605 C 265.537 505.822,265.359 506.000,265.008 506.000 C 264.481 506.000,264.459 506.099,264.884 506.561 C 265.326 507.041,265.419 507.041,265.530 506.556 C 265.602 506.245,265.827 506.093,266.030 506.219 C 266.234 506.344,266.400 506.276,266.400 506.066 C 266.400 505.857,266.121 505.578,265.779 505.447 C 265.423 505.311,265.263 505.378,265.403 505.605 M216.900 515.065 C 216.305 515.305,216.233 516.649,216.795 516.997 C 217.023 517.138,217.089 516.976,216.951 516.616 C 216.819 516.271,216.933 515.722,217.204 515.395 C 217.725 514.768,217.701 514.742,216.900 515.065 M201.127 516.752 C 201.571 517.496,201.840 518.351,201.725 518.652 C 201.609 518.954,201.724 519.200,201.981 519.200 C 202.237 519.200,202.344 519.368,202.217 519.572 C 202.091 519.777,202.170 520.058,202.393 520.196 C 203.038 520.595,202.867 518.873,202.153 517.784 C 201.600 516.941,201.586 516.694,202.053 516.098 C 202.535 515.483,202.525 515.458,201.970 515.890 C 201.473 516.278,201.233 516.278,200.830 515.890 C 200.549 515.621,200.682 516.009,201.127 516.752 M13.206 518.900 C 13.210 519.784,13.323 520.026,13.557 519.656 C 13.872 519.159,13.717 517.600,13.353 517.600 C 13.269 517.600,13.203 518.185,13.206 518.900 M213.304 523.347 C 213.250 524.116,213.284 524.130,213.647 523.492 C 213.868 523.102,214.263 522.906,214.525 523.056 C 214.786 523.206,214.860 523.174,214.688 522.986 C 214.081 522.319,213.362 522.506,213.304 523.347 M272.046 529.057 C 272.021 529.529,272.270 530.018,272.600 530.145 C 272.930 530.271,273.200 530.201,273.200 529.987 C 273.200 529.774,273.033 529.600,272.829 529.600 C 272.625 529.600,272.376 529.285,272.276 528.900 C 272.131 528.348,272.083 528.381,272.046 529.057 M17.412 530.117 C 17.241 530.512,17.213 530.947,17.351 531.084 C 17.757 531.490,18.084 530.920,17.897 530.131 C 17.732 529.433,17.710 529.432,17.412 530.117 M206.926 532.390 C 206.992 532.824,207.171 533.274,207.323 533.390 C 207.475 533.505,207.516 533.486,207.414 533.347 C 207.312 533.208,207.408 532.758,207.628 532.347 C 207.938 531.769,207.890 531.600,207.417 531.600 C 207.034 531.600,206.850 531.895,206.926 532.390 M209.734 532.227 C 209.602 532.572,209.688 533.048,209.925 533.285 C 210.232 533.592,210.286 533.452,210.115 532.795 C 209.948 532.156,210.016 531.962,210.337 532.161 C 210.592 532.318,210.800 532.257,210.800 532.024 C 210.800 531.371,210.005 531.522,209.734 532.227 M18.400 533.170 C 18.400 533.301,18.740 533.620,19.156 533.880 C 19.802 534.283,19.885 534.248,19.727 533.643 C 19.560 533.005,18.400 532.592,18.400 533.170 M26.654 543.113 C 26.543 543.292,26.596 543.670,26.771 543.953 C 27.019 544.354,27.141 544.331,27.327 543.846 C 27.579 543.190,26.998 542.557,26.654 543.113 M279.214 551.857 C 279.198 552.826,280.229 553.418,280.651 552.683 C 280.804 552.417,280.774 552.341,280.585 552.513 C 280.396 552.684,280.014 552.414,279.735 551.913 C 279.234 551.009,279.228 551.009,279.214 551.857 M39.069 555.568 C 39.327 555.859,39.442 556.346,39.326 556.649 C 39.191 557.000,39.384 557.189,39.857 557.168 C 40.283 557.150,40.385 557.050,40.098 556.934 C 39.821 556.823,39.684 556.587,39.793 556.411 C 39.902 556.235,39.678 555.854,39.296 555.565 C 38.719 555.129,38.680 555.129,39.069 555.568 M53.109 565.037 C 53.239 565.717,53.544 565.986,54.147 565.954 C 54.789 565.919,54.832 565.863,54.322 565.729 C 53.949 565.630,53.735 565.314,53.845 565.027 C 53.956 564.739,53.794 564.406,53.485 564.288 C 53.074 564.130,52.974 564.329,53.109 565.037 M64.400 570.824 C 64.400 570.984,64.689 571.225,65.042 571.361 C 65.408 571.501,65.585 571.863,65.454 572.203 C 65.315 572.565,65.456 572.800,65.813 572.800 C 66.568 572.800,66.565 572.235,65.804 571.604 C 65.477 571.332,65.289 570.980,65.387 570.821 C 65.485 570.663,65.303 570.533,64.982 570.533 C 64.662 570.533,64.400 570.664,64.400 570.824 M283.850 571.120 C 283.563 571.583,284.017 571.770,285.094 571.631 C 285.369 571.596,285.490 571.822,285.366 572.143 C 285.245 572.460,285.300 572.814,285.488 572.931 C 285.676 573.047,285.868 572.684,285.915 572.125 C 285.983 571.295,285.854 571.145,285.219 571.311 C 284.789 571.423,284.373 571.318,284.292 571.077 C 284.192 570.777,284.053 570.790,283.850 571.120 M68.806 574.303 C 68.810 574.697,68.940 574.826,69.106 574.600 C 69.511 574.049,70.400 573.912,70.400 574.400 C 70.400 574.620,70.616 574.800,70.880 574.800 C 71.657 574.800,70.554 573.873,69.605 573.728 C 69.057 573.644,68.802 573.828,68.806 574.303 M82.400 579.513 C 82.400 579.685,82.895 579.863,83.500 579.909 C 84.342 579.973,84.459 579.901,84.000 579.602 C 83.275 579.131,82.400 579.082,82.400 579.513 M287.024 580.613 C 286.258 581.191,286.259 581.200,287.057 581.200 C 287.510 581.200,287.867 580.936,287.867 580.600 C 287.867 580.270,287.852 580.006,287.833 580.013 C 287.815 580.020,287.451 580.290,287.024 580.613 M95.105 583.483 C 95.602 583.579,96.322 583.575,96.705 583.475 C 97.087 583.375,96.680 583.296,95.800 583.301 C 94.920 583.305,94.607 583.387,95.105 583.483 M108.832 587.433 C 108.810 588.257,108.992 588.667,109.378 588.667 C 109.776 588.667,109.855 588.469,109.632 588.033 C 109.454 587.685,109.208 587.130,109.086 586.800 C 108.963 586.470,108.849 586.755,108.832 587.433 M115.600 589.597 C 115.600 590.449,115.896 590.581,116.684 590.080 C 117.033 589.858,116.950 589.636,116.384 589.283 C 115.703 588.858,115.600 588.899,115.600 589.597 M259.025 593.159 C 258.921 593.328,259.052 593.484,259.318 593.504 C 259.583 593.525,260.160 593.619,260.600 593.714 C 261.040 593.808,261.173 593.807,260.895 593.712 C 260.617 593.617,260.470 593.410,260.567 593.253 C 260.665 593.095,260.401 592.940,259.980 592.908 C 259.560 592.877,259.130 592.989,259.025 593.159 M163.105 593.883 C 163.602 593.979,164.322 593.975,164.705 593.875 C 165.087 593.775,164.680 593.696,163.800 593.701 C 162.920 593.705,162.607 593.787,163.105 593.883 M239.570 595.033 C 239.554 595.235,239.464 595.811,239.371 596.314 C 239.219 597.128,239.291 597.179,240.026 596.786 C 240.725 596.412,240.773 596.241,240.339 595.672 C 240.057 595.302,239.775 594.925,239.713 594.833 C 239.651 594.742,239.587 594.832,239.570 595.033 M154.000 596.800 C 154.000 597.020,154.405 597.197,154.900 597.194 C 155.628 597.189,155.685 597.114,155.200 596.800 C 154.424 596.299,154.000 596.299,154.000 596.800 M193.519 597.098 C 195.344 597.172,198.224 597.172,199.919 597.097 C 201.614 597.022,200.120 596.961,196.600 596.962 C 193.080 596.962,191.694 597.024,193.519 597.098 M224.305 597.083 C 224.802 597.179,225.522 597.175,225.905 597.075 C 226.287 596.975,225.880 596.896,225.000 596.901 C 224.120 596.905,223.807 596.987,224.305 597.083 " stroke="none" fill="#04dc9c" fill-rule="evenodd"></path><path id="path3" d="M101.693 336.800 C 101.693 337.570,101.775 337.885,101.876 337.500 C 101.976 337.115,101.976 336.485,101.876 336.100 C 101.775 335.715,101.693 336.030,101.693 336.800 " stroke="none" fill="#14d8b4" fill-rule="evenodd"></path><path id="path4" d="M101.693 336.800 C 101.693 337.570,101.775 337.885,101.876 337.500 C 101.976 337.115,101.976 336.485,101.876 336.100 C 101.775 335.715,101.693 336.030,101.693 336.800 " stroke="none" fill="#14d8b4" fill-rule="evenodd"></path></g></svg>